# Blender 4.3.1
# www.blender.org
mtllib left_r_bar.mtl
o cube.001
v -1.443750 0.062500 0.062500
v -1.443750 0.062500 -0.062500
v -1.443750 -0.062500 0.062500
v -1.443750 -0.062500 -0.062500
v -1.506250 0.062500 -0.062500
v -1.506250 0.062500 0.062500
v -1.506250 -0.062500 -0.062500
v -1.506250 -0.062500 0.062500
v -1.375000 0.062500 0.250000
v -1.375000 0.062500 -2.062500
v -1.375000 -0.062500 0.250000
v -1.375000 -0.062500 -2.062500
v -1.437500 0.062500 -2.062500
v -1.437500 0.062500 0.250000
v -1.437500 -0.062500 -2.062500
v -1.437500 -0.062500 0.250000
vn -0.0000 -0.0000 -1.0000
vn 1.0000 -0.0000 -0.0000
vn -0.0000 -0.0000 1.0000
vn -1.0000 -0.0000 -0.0000
vn -0.0000 1.0000 -0.0000
vn -0.0000 -1.0000 -0.0000
vt 0.892857 0.008929
vt 0.883929 0.008929
vt 0.883929 0.026786
vt 0.892857 0.026786
vt 0.857143 0.035714
vt 0.875000 0.035714
vt 0.875000 0.017857
vt 0.857143 0.017857
vt 0.071429 0.714286
vt 0.062500 0.714286
vt 0.062500 0.732143
vt 0.071429 0.732143
vt 0.000000 0.821429
vt 0.330357 0.821429
vt 0.330357 0.839286
vt 0.000000 0.839286
vt 0.000000 0.830357
vt 0.330357 0.830357
s 1
usemtl m_a04509b2-9e79-7152-ac01-54b87f7e5258.005
f 4/1/1 7/2/1 5/3/1 2/4/1
f 3/5/2 4/6/2 2/7/2 1/8/2
f 8/2/3 3/1/3 1/4/3 6/3/3
f 7/5/4 8/6/4 6/7/4 5/8/4
f 6/2/5 1/1/5 2/4/5 5/3/5
f 7/2/6 4/1/6 3/4/6 8/3/6
f 12/9/1 15/10/1 13/11/1 10/12/1
f 11/13/2 12/14/2 10/15/2 9/16/2
f 16/9/3 11/10/3 9/11/3 14/12/3
f 15/14/4 16/13/4 14/16/4 13/15/4
f 14/16/5 9/17/5 10/18/5 13/15/5
f 15/18/6 12/14/6 11/13/6 16/17/6
