# Blender 4.3.1
# www.blender.org
mtllib left_e_rod.mtl
o cube.002
v -1.375000 0.062500 3.000000
v -1.375000 0.062500 -0.062500
v -1.375000 -0.062500 3.000000
v -1.375000 -0.062500 -0.062500
v -1.437500 0.062500 -0.062500
v -1.437500 0.062500 3.000000
v -1.437500 -0.062500 -0.062500
v -1.437500 -0.062500 3.000000
v -1.375000 0.125000 3.250000
v -1.375000 0.125000 3.000000
v -1.375000 -0.125000 3.250000
v -1.375000 -0.125000 3.000000
v -1.437500 0.125000 3.000000
v -1.437500 0.125000 3.250000
v -1.437500 -0.125000 3.000000
v -1.437500 -0.125000 3.250000
vn -0.0000 -0.0000 -1.0000
vn 1.0000 -0.0000 -0.0000
vn -0.0000 -0.0000 1.0000
vn -1.0000 -0.0000 -0.0000
vn -0.0000 1.0000 -0.0000
vn -0.0000 -1.0000 -0.0000
vt 0.446429 0.750000
vt 0.437500 0.750000
vt 0.437500 0.767857
vt 0.446429 0.767857
vt 0.875000 0.750000
vt 0.875000 0.767857
vt 0.508929 0.642857
vt 0.500000 0.642857
vt 0.500000 0.660714
vt 0.508929 0.660714
vt 0.437500 0.758929
vt 0.875000 0.758929
vt 0.910714 0.000000
vt 0.901786 0.000000
vt 0.901786 0.035714
vt 0.910714 0.035714
vt 0.892857 0.000000
vt 0.857143 0.000000
vt 0.857143 0.035714
vt 0.892857 0.035714
s 1
usemtl m_a04509b2-9e79-7152-ac01-54b87f7e5258.002
f 4/1/1 7/2/1 5/3/1 2/4/1
f 3/5/2 4/2/2 2/3/2 1/6/2
f 8/7/3 3/8/3 1/9/3 6/10/3
f 7/5/4 8/2/4 6/3/4 5/6/4
f 6/3/5 1/11/5 2/12/5 5/6/5
f 7/12/6 4/5/6 3/2/6 8/11/6
f 12/13/1 15/14/1 13/15/1 10/16/1
f 11/17/2 12/18/2 10/19/2 9/20/2
f 16/13/3 11/14/3 9/15/3 14/16/3
f 15/17/4 16/18/4 14/19/4 13/20/4
f 14/13/5 9/14/5 10/15/5 13/16/5
f 15/13/6 12/14/6 11/15/6 16/16/6
