# Blender 4.3.1
# www.blender.org
mtllib left_m_rod.mtl
o cube.001
v -1.187500 0.187500 4.750000
v -1.187500 0.187500 4.375000
v -1.187500 -0.187500 4.750000
v -1.187500 -0.187500 4.375000
v -1.312500 0.187500 4.375000
v -1.312500 0.187500 4.750000
v -1.312500 -0.187500 4.375000
v -1.312500 -0.187500 4.750000
v -1.187500 0.125000 0.125000
v -1.312500 0.125000 0.125000
v -1.187500 -0.125000 0.125000
v -1.312500 -0.125000 0.125000
v -1.312500 0.125000 4.375000
v -1.187500 0.125000 4.375000
v -1.312500 -0.125000 4.375000
v -1.187500 -0.125000 4.375000
vn -0.0000 -0.0000 -1.0000
vn 1.0000 -0.0000 -0.0000
vn -0.0000 -0.0000 1.0000
vn -1.0000 -0.0000 -0.0000
vn -0.0000 1.0000 -0.0000
vn -0.0000 -1.0000 -0.0000
vt 0.839286 0.008929
vt 0.857143 0.008929
vt 0.857143 0.062500
vt 0.839286 0.062500
vt 0.785714 0.008929
vt 0.785714 0.062500
vt 0.392857 0.812500
vt 1.000000 0.812500
vt 1.000000 0.848214
vt 0.392857 0.848214
vt 0.410714 0.812500
vt 0.410714 0.848214
vt 0.392857 0.776786
vt 1.000000 0.776786
vt 1.000000 0.794643
vt 0.392857 0.794643
s 1
usemtl m_a04509b2-9e79-7152-ac01-54b87f7e5258.003
f 4/1/1 7/2/1 5/3/1 2/4/1
f 3/1/2 4/5/2 2/6/2 1/4/2
f 8/1/3 3/2/3 1/3/3 6/4/3
f 7/1/4 8/5/4 6/6/4 5/4/4
f 6/4/5 1/3/5 2/2/5 5/1/5
f 7/4/6 4/3/6 3/2/6 8/1/6
f 12/7/4 15/8/4 13/9/4 10/10/4
f 11/7/1 12/11/1 10/12/1 9/10/1
f 16/7/2 11/8/2 9/9/2 14/10/2
f 15/7/3 16/11/3 14/12/3 13/10/3
f 14/13/5 9/14/5 10/15/5 13/16/5
f 15/16/6 12/15/6 11/14/6 16/13/6
