# Made in Blockbench 4.11.2
mtllib left_c_lever.mtl

o cube
v -1.3125 0.06258745171811642 0.06249999999999975
v -1.3125 0.06258745171811642 -0.0625
v -1.3125 -1.1249125482818836 0.06249999999999975
v -1.3125 -1.1249125482818836 -0.0625
v -1.375 0.06258745171811642 -0.0625
v -1.375 0.06258745171811642 0.06249999999999975
v -1.375 -1.1249125482818836 -0.0625
v -1.375 -1.1249125482818836 0.06249999999999975
vt 0.16964285714285707 0.6160714285714286
vt 0.16964285714285707 0.6071428571428572
vt 0 0.6071428571428572
vt 0 0.6160714285714286
vt 0.16964285714285707 0.625
vt 0.16964285714285707 0.6071428571428572
vt 0 0.6071428571428572
vt 0 0.625
vt 0.16964285714285707 0.625
vt 0.16964285714285707 0.6160714285714286
vt 0 0.6160714285714286
vt 0 0.625
vt 0.16964285714285707 0.6071428571428572
vt 0.16964285714285707 0.625
vt 0 0.625
vt 0 0.6071428571428572
vt 0 0.6071428571428572
vt 0.008928571428571428 0.6071428571428572
vt 0.008928571428571428 0.625
vt 0 0.625
vt 0 0.625
vt 0.008928571428571428 0.625
vt 0.008928571428571428 0.6071428571428572
vt 0 0.6071428571428572
vn 0 0 -1
vn 1 0 0
vn 0 0 1
vn -1 0 0
vn 0 1 0
vn 0 -1 0
usemtl m_647a5394-0028-91ee-b79f-c60b1a88fde7
f 4/4/1 7/3/1 5/2/1 2/1/1
f 3/8/2 4/7/2 2/6/2 1/5/2
f 8/12/3 3/11/3 1/10/3 6/9/3
f 7/16/4 8/15/4 6/14/4 5/13/4
f 6/20/5 1/19/5 2/18/5 5/17/5
f 7/24/6 4/23/6 3/22/6 8/21/6