# Blender 4.3.1
# www.blender.org
mtllib left_e_rod.mtl
o cube.001
v -1.375000 0.062500 1.375000
v -1.375000 0.062500 -0.062500
v -1.375000 -0.062500 1.375000
v -1.375000 -0.062500 -0.062500
v -1.437500 0.062500 -0.062500
v -1.437500 0.062500 1.375000
v -1.437500 -0.062500 -0.062500
v -1.437500 -0.062500 1.375000
v -1.375000 0.125000 1.625000
v -1.375000 0.125000 1.375000
v -1.375000 -0.125000 1.625000
v -1.375000 -0.125000 1.375000
v -1.437500 0.125000 1.375000
v -1.437500 0.125000 1.625000
v -1.437500 -0.125000 1.375000
v -1.437500 -0.125000 1.625000
vn -0.0000 -0.0000 -1.0000
vn 1.0000 -0.0000 -0.0000
vn -0.0000 -0.0000 1.0000
vn -1.0000 -0.0000 -0.0000
vn -0.0000 1.0000 -0.0000
vn -0.0000 -1.0000 -0.0000
vt 0.071429 0.580357
vt 0.062500 0.580357
vt 0.062500 0.598214
vt 0.071429 0.598214
vt 0.205357 0.687500
vt 0.000000 0.687500
vt 0.000000 0.705357
vt 0.205357 0.705357
vt 0.000000 0.696429
vt 0.205357 0.696429
vt 0.910714 0.000000
vt 0.901786 0.000000
vt 0.901786 0.035714
vt 0.910714 0.035714
vt 0.892857 0.000000
vt 0.857143 0.000000
vt 0.857143 0.035714
vt 0.892857 0.035714
s 1
usemtl m_647a5394-0028-91ee-b79f-c60b1a88fde7.011
f 4/1/1 7/2/1 5/3/1 2/4/1
f 3/5/2 4/6/2 2/7/2 1/8/2
f 8/1/3 3/2/3 1/3/3 6/4/3
f 7/5/4 8/6/4 6/7/4 5/8/4
f 6/7/5 1/9/5 2/10/5 5/8/5
f 7/10/6 4/5/6 3/6/6 8/9/6
f 12/11/1 15/12/1 13/13/1 10/14/1
f 11/15/2 12/16/2 10/17/2 9/18/2
f 16/11/3 11/12/3 9/13/3 14/14/3
f 15/15/4 16/16/4 14/17/4 13/18/4
f 14/11/5 9/12/5 10/13/5 13/14/5
f 15/11/6 12/12/6 11/13/6 16/14/6
