# Blender 4.3.1
# www.blender.org
mtllib right_r_bar.mtl
o cube.001
v 1.506250 0.062500 0.062500
v 1.506250 0.062500 -0.062500
v 1.506250 -0.062500 0.062500
v 1.506250 -0.062500 -0.062500
v 1.443750 0.062500 -0.062500
v 1.443750 0.062500 0.062500
v 1.443750 -0.062500 -0.062500
v 1.443750 -0.062500 0.062500
v 1.437500 0.062500 0.250000
v 1.437500 0.062500 -1.375000
v 1.437500 -0.062500 0.250000
v 1.437500 -0.062500 -1.375000
v 1.375000 0.062500 -1.375000
v 1.375000 0.062500 0.250000
v 1.375000 -0.062500 -1.375000
v 1.375000 -0.062500 0.250000
vn -0.0000 -0.0000 -1.0000
vn 1.0000 -0.0000 -0.0000
vn -0.0000 -0.0000 1.0000
vn -1.0000 -0.0000 -0.0000
vn -0.0000 1.0000 -0.0000
vn -0.0000 -1.0000 -0.0000
vt 0.883929 0.008929
vt 0.892857 0.008929
vt 0.892857 0.026786
vt 0.883929 0.026786
vt 0.875000 0.035714
vt 0.857143 0.035714
vt 0.857143 0.017857
vt 0.875000 0.017857
vt 0.062500 0.660714
vt 0.071429 0.660714
vt 0.071429 0.678571
vt 0.062500 0.678571
vt 0.000000 0.767857
vt 0.232143 0.767857
vt 0.232143 0.785714
vt 0.000000 0.785714
vt 0.000000 0.776786
vt 0.232143 0.776786
s 1
usemtl m_647a5394-0028-91ee-b79f-c60b1a88fde7.006
f 4/1/1 7/2/1 5/3/1 2/4/1
f 3/5/2 4/6/2 2/7/2 1/8/2
f 8/2/3 3/1/3 1/4/3 6/3/3
f 7/5/4 8/6/4 6/7/4 5/8/4
f 6/2/5 1/1/5 2/4/5 5/3/5
f 7/2/6 4/1/6 3/4/6 8/3/6
f 12/9/1 15/10/1 13/11/1 10/12/1
f 11/13/2 12/14/2 10/15/2 9/16/2
f 16/9/3 11/10/3 9/11/3 14/12/3
f 15/14/4 16/13/4 14/16/4 13/15/4
f 14/17/5 9/16/5 10/15/5 13/18/5
f 15/14/6 12/18/6 11/17/6 16/13/6
