# Made in Blockbench 4.11.2
mtllib right_v_stem.mtl

o cube
v 1.3125 1.875 -2.814062499999995
v 1.3125 1.875 -3.626562499999996
v 1.3125 1.75 -2.814062499999995
v 1.3125 1.75 -3.626562499999996
v 1.1875 1.875 -3.626562499999996
v 1.1875 1.875 -2.814062499999995
v 1.1875 1.75 -3.626562499999996
v 1.1875 1.75 -2.814062499999995
vt 0 0.4910714285714286
vt 0.017857142857142856 0.4910714285714286
vt 0.017857142857142856 0.4732142857142857
vt 0 0.4732142857142857
vt 0.11607142857142869 0.4910714285714286
vt 0 0.4910714285714286
vt 0 0.4732142857142857
vt 0.11607142857142869 0.4732142857142857
vt 0.08035714285714286 0.4910714285714286
vt 0.09821428571428571 0.4910714285714286
vt 0.09821428571428571 0.4732142857142857
vt 0.08035714285714286 0.4732142857142857
vt 0 0.4732142857142857
vt 0.11607142857142869 0.4732142857142857
vt 0.11607142857142869 0.4910714285714286
vt 0 0.4910714285714286
vt 0 0.4732142857142857
vt 0 0.4910714285714286
vt 0.11607142857142869 0.4910714285714286
vt 0.11607142857142869 0.4732142857142857
vt 0.11607142857142869 0.4910714285714286
vt 0.11607142857142869 0.4732142857142857
vt 0 0.4732142857142857
vt 0 0.4910714285714286
vn 0 0 -1
vn 1 0 0
vn 0 0 1
vn -1 0 0
vn 0 1 0
vn 0 -1 0
usemtl m_647a5394-0028-91ee-b79f-c60b1a88fde7
f 4/4/1 7/3/1 5/2/1 2/1/1
f 3/8/2 4/7/2 2/6/2 1/5/2
f 8/12/3 3/11/3 1/10/3 6/9/3
f 7/16/4 8/15/4 6/14/4 5/13/4
f 6/20/5 1/19/5 2/18/5 5/17/5
f 7/24/6 4/23/6 3/22/6 8/21/6