# Blender 4.3.1
# www.blender.org
mtllib right_c_rod.mtl
o cube.006
v 1.250000 0.125000 2.375000
v 1.250000 0.125000 2.125000
v 1.250000 -0.125000 2.375000
v 1.250000 -0.125000 2.125000
v 1.000000 0.125000 2.125000
v 1.000000 0.125000 2.375000
v 1.000000 -0.125000 2.125000
v 1.000000 -0.125000 2.375000
v 1.193750 0.125000 -2.125000
v 1.193750 0.125000 -2.375000
v 1.193750 -0.125000 -2.125000
v 1.193750 -0.125000 -2.375000
v 0.943750 0.125000 -2.375000
v 0.943750 0.125000 -2.125000
v 0.943750 -0.125000 -2.375000
v 0.943750 -0.125000 -2.125000
v 1.187500 0.187500 -2.062500
v 1.187500 0.187500 -2.437500
v 1.187500 -0.187500 -2.062500
v 1.187500 -0.187500 -2.437500
v 1.062500 0.187500 -2.437500
v 1.062500 0.187500 -2.062500
v 1.062500 -0.187500 -2.437500
v 1.062500 -0.187500 -2.062500
v 1.187500 0.125000 -0.187500
v 1.187500 0.125000 -2.062500
v 1.187500 -0.125000 -0.187500
v 1.187500 -0.125000 -2.062500
v 1.062500 0.125000 -2.062500
v 1.062500 0.125000 -0.187500
v 1.062500 -0.125000 -2.062500
v 1.062500 -0.125000 -0.187500
v 1.187500 0.187500 0.187500
v 1.187500 0.187500 -0.187500
v 1.187500 -0.187500 0.187500
v 1.187500 -0.187500 -0.187500
v 1.062500 0.187500 -0.187500
v 1.062500 0.187500 0.187500
v 1.062500 -0.187500 -0.187500
v 1.062500 -0.187500 0.187500
v 1.187500 0.125000 2.062500
v 1.187500 0.125000 0.187500
v 1.187500 -0.125000 2.062500
v 1.187500 -0.125000 0.187500
v 1.062500 0.125000 0.187500
v 1.062500 0.125000 2.062500
v 1.062500 -0.125000 0.187500
v 1.062500 -0.125000 2.062500
v 1.187500 0.187500 2.437500
v 1.187500 0.187500 2.062500
v 1.187500 -0.187500 2.437500
v 1.187500 -0.187500 2.062500
v 1.062500 0.187500 2.062500
v 1.062500 0.187500 2.437500
v 1.062500 -0.187500 2.062500
v 1.062500 -0.187500 2.437500
vn -0.0000 -0.0000 -1.0000
vn 1.0000 -0.0000 -0.0000
vn -0.0000 -0.0000 1.0000
vn -1.0000 -0.0000 -0.0000
vn -0.0000 1.0000 -0.0000
vn -0.0000 -1.0000 -0.0000
vt 0.892857 0.035714
vt 0.928571 0.035714
vt 0.928571 0.071429
vt 0.892857 0.071429
vt 0.857143 0.035714
vt 0.857143 0.071429
vt 0.857143 0.008929
vt 0.839286 0.008929
vt 0.839286 0.062500
vt 0.857143 0.062500
vt 0.785714 0.008929
vt 0.785714 0.062500
vt 0.982143 0.571429
vt 1.000000 0.571429
vt 1.000000 0.607143
vt 0.982143 0.607143
vt 0.732143 0.571429
vt 0.732143 0.607143
vt 0.750000 0.571429
vt 0.750000 0.607143
vt 1.000000 0.535714
vt 1.000000 0.553571
vt 0.732143 0.553571
vt 0.732143 0.535714
s 1
usemtl m_647a5394-0028-91ee-b79f-c60b1a88fde7.002
f 4/1/1 7/2/1 5/3/1 2/4/1
f 3/5/2 4/1/2 2/4/2 1/6/2
f 8/2/3 3/1/3 1/4/3 6/3/3
f 7/1/4 8/5/4 6/6/4 5/4/4
f 6/2/5 1/1/5 2/4/5 5/3/5
f 7/2/6 4/1/6 3/4/6 8/3/6
f 12/1/1 15/2/1 13/3/1 10/4/1
f 11/5/2 12/1/2 10/4/2 9/6/2
f 16/2/3 11/1/3 9/4/3 14/3/3
f 15/1/4 16/5/4 14/6/4 13/4/4
f 14/2/5 9/1/5 10/4/5 13/3/5
f 15/2/6 12/1/6 11/4/6 16/3/6
f 20/7/1 23/8/1 21/9/1 18/10/1
f 19/11/2 20/8/2 18/9/2 17/12/2
f 24/7/3 19/8/3 17/9/3 22/10/3
f 23/11/4 24/8/4 22/9/4 21/12/4
f 22/10/5 17/9/5 18/8/5 21/7/5
f 23/10/6 20/9/6 19/8/6 24/7/6
f 28/13/1 31/14/1 29/15/1 26/16/1
f 27/17/2 28/14/2 26/15/2 25/18/2
f 32/17/3 27/19/3 25/20/3 30/18/3
f 31/17/4 32/14/4 30/15/4 29/18/4
f 30/21/5 25/22/5 26/23/5 29/24/5
f 31/21/6 28/22/6 27/23/6 32/24/6
f 36/7/1 39/8/1 37/9/1 34/10/1
f 35/11/2 36/8/2 34/9/2 33/12/2
f 40/7/3 35/8/3 33/9/3 38/10/3
f 39/11/4 40/8/4 38/9/4 37/12/4
f 38/10/5 33/9/5 34/8/5 37/7/5
f 39/10/6 36/9/6 35/8/6 40/7/6
f 44/13/1 47/14/1 45/15/1 42/16/1
f 43/17/2 44/14/2 42/15/2 41/18/2
f 48/17/3 43/19/3 41/20/3 46/18/3
f 47/17/4 48/14/4 46/15/4 45/18/4
f 46/21/5 41/22/5 42/23/5 45/24/5
f 47/21/6 44/22/6 43/23/6 48/24/6
f 52/7/1 55/8/1 53/9/1 50/10/1
f 51/11/2 52/8/2 50/9/2 49/12/2
f 56/7/3 51/8/3 49/9/3 54/10/3
f 55/11/4 56/8/4 54/9/4 53/12/4
f 54/10/5 49/9/5 50/8/5 53/7/5
f 55/10/6 52/9/6 51/8/6 56/7/6
