# Blender 4.3.1
# www.blender.org
mtllib right_p_rod.mtl
o Rod
v 1.312500 1.375000 -2.603125
v 1.312500 1.375000 -3.853125
v 1.312500 1.125000 -2.603125
v 1.312500 1.125000 -3.853125
v 1.187500 1.375000 -3.853125
v 1.187500 1.375000 -2.603125
v 1.187500 1.125000 -3.853125
v 1.187500 1.125000 -2.603125
v 1.318750 1.443750 -2.221875
v 1.318750 1.443750 -2.609375
v 1.318750 1.056250 -2.221875
v 1.318750 1.056250 -2.609375
v 1.181250 1.443750 -2.609375
v 1.181250 1.443750 -2.221875
v 1.181250 1.056250 -2.609375
v 1.181250 1.056250 -2.221875
v 1.375000 1.375000 -2.290625
v 1.375000 1.375000 -2.540625
v 1.375000 1.125000 -2.290625
v 1.375000 1.125000 -2.540625
v 1.187500 1.375000 -2.540625
v 1.187500 1.375000 -2.290625
v 1.187500 1.125000 -2.540625
v 1.187500 1.125000 -2.290625
v 1.375000 1.125000 -2.353125
v 1.375000 1.125000 -2.478125
v 1.375000 0.875000 -2.353125
v 1.375000 0.875000 -2.478125
v 1.312500 1.125000 -2.478125
v 1.312500 1.125000 -2.353125
v 1.312500 0.875000 -2.478125
v 1.312500 0.875000 -2.353125
v 1.315625 1.565625 -2.225000
v 1.315625 1.565625 -2.606250
v 1.315625 1.496875 -2.225000
v 1.315625 1.496875 -2.606250
v 1.184375 1.565625 -2.606250
v 1.184375 1.565625 -2.225000
v 1.184375 1.496875 -2.606250
v 1.184375 1.496875 -2.225000
vn -0.0000 -0.0000 -1.0000
vn 1.0000 -0.0000 -0.0000
vn -0.0000 -0.0000 1.0000
vn -1.0000 -0.0000 -0.0000
vn -0.0000 1.0000 -0.0000
vn -0.0000 -1.0000 -0.0000
vt 0.937500 0.312500
vt 0.955357 0.312500
vt 0.955357 0.348214
vt 0.937500 0.348214
vt 0.794643 0.312500
vt 0.973214 0.312500
vt 0.973214 0.348214
vt 0.794643 0.348214
vt 0.812500 0.312500
vt 0.812500 0.348214
vt 0.794643 0.330357
vt 0.973214 0.330357
vt 0.964286 0.080357
vt 0.982143 0.080357
vt 0.982143 0.133929
vt 0.964286 0.133929
vt 0.946429 0.080357
vt 1.000000 0.080357
vt 1.000000 0.133929
vt 0.946429 0.133929
vt 0.928571 0.008929
vt 0.946429 0.008929
vt 0.946429 0.062500
vt 0.928571 0.062500
vt 0.928571 0.035714
vt 0.892857 0.035714
vt 0.892857 0.071429
vt 0.928571 0.071429
vt 0.857143 0.035714
vt 0.857143 0.071429
vt 0.160714 0.008929
vt 0.160714 0.000000
vt 0.125000 0.000000
vt 0.125000 0.008929
vt 0.160714 0.017857
vt 0.160714 0.000000
vt 0.125000 0.000000
vt 0.125000 0.017857
vt 0.133929 0.000000
vt 0.133929 0.017857
vt 0.169643 0.000000
vt 0.169643 0.017857
vt 0.625000 0.562500
vt 0.625000 0.553571
vt 0.616071 0.553571
vt 0.616071 0.562500
vt 0.571429 0.553571
vt 0.571429 0.562500
vt 0.580357 0.562500
vt 0.580357 0.553571
s 1
usemtl m_647a5394-0028-91ee-b79f-c60b1a88fde7.005
f 4/1/1 7/2/1 5/3/1 2/4/1
f 3/5/2 4/6/2 2/7/2 1/8/2
f 8/5/3 3/9/3 1/10/3 6/8/3
f 7/6/4 8/5/4 6/8/4 5/7/4
f 6/11/5 1/8/5 2/7/5 5/12/5
f 7/6/6 4/12/6 3/11/6 8/5/6
f 12/13/1 15/14/1 13/15/1 10/16/1
f 11/17/2 12/18/2 10/19/2 9/20/2
f 16/13/3 11/14/3 9/15/3 14/16/3
f 15/17/4 16/18/4 14/19/4 13/20/4
f 14/21/5 9/22/5 10/23/5 13/24/5
f 15/21/6 12/22/6 11/23/6 16/24/6
f 20/25/1 23/26/1 21/27/1 18/28/1
f 19/29/2 20/26/2 18/27/2 17/30/2
f 24/25/3 19/26/3 17/27/3 22/28/3
f 23/26/4 24/29/4 22/30/4 21/27/4
f 22/25/5 17/26/5 18/27/5 21/28/5
f 23/25/6 20/26/6 19/27/6 24/28/6
f 28/31/1 31/32/1 29/33/1 26/34/1
f 27/35/2 28/36/2 26/37/2 25/38/2
f 32/35/3 27/31/3 25/34/3 30/38/3
f 31/36/4 32/35/4 30/38/4 29/37/4
f 30/37/5 25/39/5 26/40/5 29/38/5
f 31/41/6 28/36/6 27/35/6 32/42/6
f 36/43/1 39/44/1 37/45/1 34/46/1
f 35/47/2 36/44/2 34/43/2 33/48/2
f 40/49/3 35/50/3 33/47/3 38/48/3
f 39/44/4 40/47/4 38/48/4 37/43/4
f 38/48/5 33/47/5 34/44/5 37/43/5
f 39/43/6 36/44/6 35/47/6 40/48/6
