# Made in Blockbench 4.11.2
mtllib left_v_stem.mtl

o cube
v -1.1875 1.5 -1.9796874999999954
v -1.1875 1.5 -2.6046874999999963
v -1.1875 1.375 -1.9796874999999954
v -1.1875 1.375 -2.6046874999999963
v -1.3125 1.5 -2.6046874999999963
v -1.3125 1.5 -1.9796874999999954
v -1.3125 1.375 -2.6046874999999963
v -1.3125 1.375 -1.9796874999999954
vt 0.07142857142857142 0.4107142857142857
vt 0.08928571428571427 0.4107142857142857
vt 0.08928571428571427 0.3928571428571429
vt 0.07142857142857142 0.3928571428571429
vt 0.08928571428571427 0.3928571428571429
vt 0 0.3928571428571429
vt 0 0.4107142857142857
vt 0.08928571428571427 0.4107142857142857
vt 0.08928571428571427 0.4107142857142857
vt 0.07142857142857142 0.4107142857142857
vt 0.07142857142857142 0.3928571428571429
vt 0.08928571428571427 0.3928571428571429
vt 0 0.4107142857142857
vt 0.08928571428571427 0.4107142857142857
vt 0.08928571428571427 0.3928571428571429
vt 0 0.3928571428571429
vt 0 0.4107142857142857
vt 0 0.3928571428571429
vt 0.08928571428571427 0.3928571428571429
vt 0.08928571428571427 0.4107142857142857
vt 0.08928571428571427 0.3928571428571429
vt 0.08928571428571427 0.4107142857142857
vt 0 0.4107142857142857
vt 0 0.3928571428571429
vn 0 0 -1
vn 1 0 0
vn 0 0 1
vn -1 0 0
vn 0 1 0
vn 0 -1 0
usemtl m_ec6f6917-f447-215e-ebd8-0b7cdc5ce34d
f 4/4/1 7/3/1 5/2/1 2/1/1
f 3/8/2 4/7/2 2/6/2 1/5/2
f 8/12/3 3/11/3 1/10/3 6/9/3
f 7/16/4 8/15/4 6/14/4 5/13/4
f 6/20/5 1/19/5 2/18/5 5/17/5
f 7/24/6 4/23/6 3/22/6 8/21/6