# Blender 4.3.2
# www.blender.org
mtllib right_p_rod.mtl
o Rod
v 1.312500 1.125000 -1.846875
v 1.312500 1.125000 -2.721875
v 1.312500 0.875000 -1.846875
v 1.312500 0.875000 -2.721875
v 1.187500 1.125000 -2.721875
v 1.187500 1.125000 -1.846875
v 1.187500 0.875000 -2.721875
v 1.187500 0.875000 -1.846875
v 1.375000 1.125000 -1.548438
v 1.375000 1.125000 -1.798438
v 1.375000 0.875000 -1.548438
v 1.375000 0.875000 -1.798438
v 1.187500 1.125000 -1.798438
v 1.187500 1.125000 -1.548438
v 1.187500 0.875000 -1.798438
v 1.187500 0.875000 -1.548438
v 1.375000 0.875000 -1.610938
v 1.375000 0.875000 -1.735938
v 1.375000 0.562500 -1.610937
v 1.375000 0.562500 -1.735937
v 1.312500 0.875000 -1.735938
v 1.312500 0.875000 -1.610938
v 1.312500 0.562500 -1.735937
v 1.312500 0.562500 -1.610937
v 1.171875 1.265625 -1.470313
v 1.328125 1.265625 -1.470313
v 1.171875 0.734375 -1.470312
v 1.328125 0.734375 -1.470312
v 1.328125 1.265625 -1.876563
v 1.171875 1.265625 -1.876563
v 1.328125 0.734375 -1.876562
v 1.171875 0.734375 -1.876562
vn -0.0000 -0.0000 -1.0000
vn 1.0000 -0.0000 -0.0000
vn -0.0000 -0.0000 1.0000
vn -1.0000 -0.0000 -0.0000
vn -0.0000 1.0000 -0.0000
vn -0.0000 -1.0000 -0.0000
vt 0.973214 0.223214
vt 0.955357 0.223214
vt 0.955357 0.258929
vt 0.973214 0.258929
vt 0.857143 0.223214
vt 0.982143 0.223214
vt 0.982143 0.258929
vt 0.857143 0.258929
vt 0.875000 0.223214
vt 0.875000 0.258929
vt 0.857143 0.241071
vt 0.982143 0.241071
vt 0.892857 0.071429
vt 0.919643 0.071429
vt 0.919643 0.035714
vt 0.892857 0.035714
vt 0.857143 0.035714
vt 0.857143 0.071429
vt 0.169643 0.008929
vt 0.169643 0.000000
vt 0.125000 0.000000
vt 0.125000 0.008929
vt 0.169643 0.017857
vt 0.125000 0.017857
vt 0.133929 0.017857
vt 0.133929 0.000000
vt 0.160714 0.000000
vt 0.160714 0.017857
vt 0.946429 0.000000
vt 1.000000 0.000000
vt 1.000000 0.071429
vt 0.946429 0.071429
vt 0.964286 0.000000
vt 0.982143 0.000000
vt 0.982143 0.071429
vt 0.964286 0.071429
vt 1.000000 0.017857
vt 0.946429 0.017857
s 1
usemtl m_ec6f6917-f447-215e-ebd8-0b7cdc5ce34d
f 4/1/1 7/2/1 5/3/1 2/4/1
f 3/5/2 4/6/2 2/7/2 1/8/2
f 8/9/3 3/5/3 1/8/3 6/10/3
f 7/6/4 8/5/4 6/8/4 5/7/4
f 6/11/5 1/8/5 2/7/5 5/12/5
f 7/12/6 4/6/6 3/5/6 8/11/6
f 12/13/1 15/14/1 13/15/1 10/16/1
f 11/13/2 12/16/2 10/17/2 9/18/2
f 16/15/3 11/16/3 9/13/3 14/14/3
f 15/16/4 16/17/4 14/18/4 13/13/4
f 14/15/5 9/16/5 10/13/5 13/14/5
f 15/15/6 12/16/6 11/13/6 16/14/6
f 20/19/1 23/20/1 21/21/1 18/22/1
f 19/23/2 20/20/2 18/21/2 17/24/2
f 24/23/3 19/19/3 17/22/3 22/24/3
f 23/20/4 24/23/4 22/24/4 21/21/4
f 22/24/5 17/25/5 18/26/5 21/21/5
f 23/27/6 20/20/6 19/23/6 24/28/6
f 28/29/2 31/30/2 29/31/2 26/32/2
f 27/33/3 28/34/3 26/35/3 25/36/3
f 32/30/4 27/29/4 25/32/4 30/31/4
f 31/33/1 32/34/1 30/35/1 29/36/1
f 30/37/5 25/38/5 26/29/5 29/30/5
f 31/30/6 28/29/6 27/38/6 32/37/6
