# Blender 4.3.2
# www.blender.org
mtllib right_c_rod.mtl
o cube.006
v 1.187500 0.187500 -1.500000
v 1.187500 0.187500 -1.875000
v 1.187500 -0.187500 -1.500000
v 1.187500 -0.187500 -1.875000
v 1.062500 0.187500 -1.875000
v 1.062500 0.187500 -1.500000
v 1.062500 -0.187500 -1.875000
v 1.062500 -0.187500 -1.500000
v 1.187500 0.125000 1.500000
v 1.187500 0.125000 0.187500
v 1.187500 -0.125000 1.500000
v 1.187500 -0.125000 0.187500
v 1.062500 0.125000 0.187500
v 1.062500 0.125000 1.500000
v 1.062500 -0.125000 0.187500
v 1.062500 -0.125000 1.500000
v 1.187500 0.125000 -0.187500
v 1.187500 0.125000 -1.500000
v 1.187500 -0.125000 -0.187500
v 1.187500 -0.125000 -1.500000
v 1.062500 0.125000 -1.500000
v 1.062500 0.125000 -0.187500
v 1.062500 -0.125000 -1.500000
v 1.062500 -0.125000 -0.187500
v 1.250000 0.125000 1.812500
v 1.250000 0.125000 1.562500
v 1.250000 -0.125000 1.812500
v 1.250000 -0.125000 1.562500
v 1.000000 0.125000 1.562500
v 1.000000 0.125000 1.812500
v 1.000000 -0.125000 1.562500
v 1.000000 -0.125000 1.812500
v 1.187500 0.187500 1.875000
v 1.187500 0.187500 1.500000
v 1.187500 -0.187500 1.875000
v 1.187500 -0.187500 1.500000
v 1.062500 0.187500 1.500000
v 1.062500 0.187500 1.875000
v 1.062500 -0.187500 1.500000
v 1.062500 -0.187500 1.875000
v 1.187500 0.187500 0.187500
v 1.187500 0.187500 -0.187500
v 1.187500 -0.187500 0.187500
v 1.187500 -0.187500 -0.187500
v 1.062500 0.187500 -0.187500
v 1.062500 0.187500 0.187500
v 1.062500 -0.187500 -0.187500
v 1.062500 -0.187500 0.187500
v 1.193750 0.125000 -1.562500
v 1.193750 0.125000 -1.812500
v 1.193750 -0.125000 -1.562500
v 1.193750 -0.125000 -1.812500
v 0.943750 0.125000 -1.812500
v 0.943750 0.125000 -1.562500
v 0.943750 -0.125000 -1.812500
v 0.943750 -0.125000 -1.562500
vn -0.0000 -0.0000 -1.0000
vn 1.0000 -0.0000 -0.0000
vn -0.0000 -0.0000 1.0000
vn -1.0000 -0.0000 -0.0000
vn -0.0000 1.0000 -0.0000
vn -0.0000 -1.0000 -0.0000
vt 0.839286 0.062500
vt 0.857143 0.062500
vt 0.857143 0.008929
vt 0.839286 0.008929
vt 0.785714 0.008929
vt 0.785714 0.062500
vt 0.812500 0.410714
vt 0.830357 0.410714
vt 0.830357 0.446429
vt 0.812500 0.446429
vt 1.000000 0.410714
vt 1.000000 0.446429
vt 0.812500 0.428571
vt 1.000000 0.428571
vt 1.000000 0.401786
vt 1.000000 0.419643
vt 0.812500 0.419643
vt 0.812500 0.401786
vt 0.892857 0.071429
vt 0.928571 0.071429
vt 0.928571 0.035714
vt 0.892857 0.035714
vt 0.857143 0.035714
vt 0.857143 0.071429
s 1
usemtl m_ec6f6917-f447-215e-ebd8-0b7cdc5ce34d.011
f 4/1/1 7/2/1 5/3/1 2/4/1
f 3/1/2 4/4/2 2/5/2 1/6/2
f 8/3/3 3/4/3 1/1/3 6/2/3
f 7/4/4 8/5/4 6/6/4 5/1/4
f 6/3/5 1/4/5 2/1/5 5/2/5
f 7/3/6 4/4/6 3/1/6 8/2/6
f 12/7/1 15/8/1 13/9/1 10/10/1
f 11/7/2 12/11/2 10/12/2 9/10/2
f 16/7/3 11/8/3 9/9/3 14/10/3
f 15/7/4 16/11/4 14/12/4 13/10/4
f 14/13/5 9/10/5 10/12/5 13/14/5
f 15/15/6 12/16/6 11/17/6 16/18/6
f 20/7/1 23/8/1 21/9/1 18/10/1
f 19/7/2 20/11/2 18/12/2 17/10/2
f 24/7/3 19/8/3 17/9/3 22/10/3
f 23/7/4 24/11/4 22/12/4 21/10/4
f 22/13/5 17/10/5 18/12/5 21/14/5
f 23/15/6 20/16/6 19/17/6 24/18/6
f 28/19/1 31/20/1 29/21/1 26/22/1
f 27/19/2 28/22/2 26/23/2 25/24/2
f 32/21/3 27/22/3 25/19/3 30/20/3
f 31/22/4 32/23/4 30/24/4 29/19/4
f 30/21/5 25/22/5 26/19/5 29/20/5
f 31/21/6 28/22/6 27/19/6 32/20/6
f 36/1/1 39/2/1 37/3/1 34/4/1
f 35/1/2 36/4/2 34/5/2 33/6/2
f 40/3/3 35/4/3 33/1/3 38/2/3
f 39/4/4 40/5/4 38/6/4 37/1/4
f 38/3/5 33/4/5 34/1/5 37/2/5
f 39/3/6 36/4/6 35/1/6 40/2/6
f 44/1/1 47/2/1 45/3/1 42/4/1
f 43/1/2 44/4/2 42/5/2 41/6/2
f 48/3/3 43/4/3 41/1/3 46/2/3
f 47/4/4 48/5/4 46/6/4 45/1/4
f 46/3/5 41/4/5 42/1/5 45/2/5
f 47/3/6 44/4/6 43/1/6 48/2/6
f 52/19/1 55/20/1 53/21/1 50/22/1
f 51/19/2 52/22/2 50/23/2 49/24/2
f 56/21/3 51/22/3 49/19/3 54/20/3
f 55/22/4 56/23/4 54/24/4 53/19/4
f 54/21/5 49/22/5 50/19/5 53/20/5
f 55/21/6 52/22/6 51/19/6 56/20/6
