# Blender 4.3.2
# www.blender.org
mtllib frame.mtl
o Cube.006_Cube.007
v 0.750762 0.442187 -2.059375
v 0.000000 0.442187 -1.809375
v 0.000000 0.442187 -2.059375
v -0.673097 0.629687 -1.809375
v -0.750762 0.442187 -1.809375
v 0.673097 0.629687 -2.059375
v 0.000000 0.629687 -2.059375
v 0.000000 0.629687 -1.809375
v 0.673097 0.629687 -1.809375
v -0.673097 0.629687 -2.059375
v -0.750762 0.442187 -2.059375
v 0.750762 0.442187 -1.809375
v -0.750762 0.442187 -2.059375
v -1.281631 0.973056 -1.809375
v -1.281631 0.973056 -2.059375
v -0.673097 0.629687 -2.059375
v -1.149048 1.105638 -1.809375
v -0.673097 0.629687 -1.809375
v -0.750762 0.442187 -1.809375
v -1.149048 1.105638 -2.059375
v 1.281631 0.973056 -1.809375
v 0.673098 0.629687 -1.809375
v 0.750763 0.442187 -1.809375
v 1.149049 1.105639 -2.059375
v 1.149049 1.105639 -1.809375
v 0.673098 0.629687 -2.059375
v 1.281631 0.973056 -2.059375
v 0.750763 0.442187 -2.059375
v 1.312500 0.687500 -1.625000
v 1.312500 0.687500 -1.750000
v 1.312500 0.437500 -1.625000
v 1.312500 0.437500 -1.750000
v 1.187500 0.687500 -1.750000
v 1.187500 0.687500 -1.625000
v 1.187500 0.437500 -1.750000
v 1.187500 0.437500 -1.625000
v 1.312500 0.437500 -1.625000
v 1.312500 0.437500 -2.812500
v 1.312500 0.312500 -1.625000
v 1.312500 0.312500 -2.812500
v 1.187500 0.437500 -2.812500
v 1.187500 0.437500 -1.625000
v 1.187500 0.312500 -2.812500
v 1.187500 0.312500 -1.625000
v 1.312500 0.562500 -2.250000
v 1.312500 0.562500 -2.812500
v 1.312500 0.437500 -2.250000
v 1.312500 0.437500 -2.812500
v 1.187500 0.562500 -2.812500
v 1.187500 0.562500 -2.250000
v 1.187500 0.437500 -2.812500
v 1.187500 0.437500 -2.250000
v -1.187500 0.687500 -1.625000
v -1.187500 0.687500 -1.750000
v -1.187500 0.437500 -1.625000
v -1.187500 0.437500 -1.750000
v -1.312500 0.687500 -1.750000
v -1.312500 0.687500 -1.625000
v -1.312500 0.437500 -1.750000
v -1.312500 0.437500 -1.625000
v -1.187500 0.437500 -1.625000
v -1.187500 0.437500 -2.812500
v -1.187500 0.312500 -1.625000
v -1.187500 0.312500 -2.812500
v -1.312500 0.437500 -2.812500
v -1.312500 0.437500 -1.625000
v -1.312500 0.312500 -2.812500
v -1.312500 0.312500 -1.625000
v -1.187500 0.562500 -2.250000
v -1.187500 0.562500 -2.812500
v -1.187500 0.437500 -2.250000
v -1.187500 0.437500 -2.812500
v -1.312500 0.562500 -2.812500
v -1.312500 0.562500 -2.250000
v -1.312500 0.437500 -2.812500
v -1.312500 0.437500 -2.250000
v 1.312500 0.812500 -0.228125
v 1.312500 0.812500 -1.478125
v 1.312500 0.687500 -0.228125
v 1.312500 0.687500 -1.478125
v 1.187500 0.812500 -1.478125
v 1.187500 0.812500 -0.228125
v 1.187500 0.687500 -1.478125
v 1.187500 0.687500 -0.228125
v 1.312500 1.312500 -0.228125
v 1.312500 1.312500 -1.478125
v 1.312500 1.187500 -0.228125
v 1.312500 1.187500 -1.478125
v 1.187500 1.312500 -1.478125
v 1.187500 1.312500 -0.228125
v 1.187500 1.187500 -1.478125
v 1.187500 1.187500 -0.228125
v 1.496875 1.562500 -2.495312
v 1.496875 1.562500 -2.557812
v 1.496875 0.625000 -2.495312
v 1.496875 0.625000 -2.557812
v 0.996875 1.562500 -2.557812
v 0.996875 1.562500 -2.495312
v 0.996875 0.625000 -2.557812
v 0.996875 0.625000 -2.495312
v 1.559375 1.625000 -1.495313
v 1.559375 1.625000 -2.495313
v 1.559375 0.562500 -1.495312
v 1.559375 0.562500 -2.495312
v 0.934375 1.625000 -2.495313
v 0.934375 1.625000 -1.495313
v 0.934375 0.562500 -2.495312
v 0.934375 0.562500 -1.495312
v 1.496875 1.562500 -1.432813
v 1.496875 1.562500 -1.495313
v 1.496875 0.625000 -1.432812
v 1.496875 0.625000 -1.495312
v 0.996875 1.562500 -1.495313
v 0.996875 1.562500 -1.432813
v 0.996875 0.625000 -1.495312
v 0.996875 0.625000 -1.432812
v -0.996875 1.562500 -1.432813
v -0.996875 1.562500 -1.495313
v -0.996875 0.625000 -1.432812
v -0.996875 0.625000 -1.495312
v -1.496875 1.562500 -1.495313
v -1.496875 1.562500 -1.432813
v -1.496875 0.625000 -1.495312
v -1.496875 0.625000 -1.432812
v -0.996875 1.562500 -2.495312
v -0.996875 1.562500 -2.557812
v -0.996875 0.625000 -2.495312
v -0.996875 0.625000 -2.557812
v -1.496875 1.562500 -2.557812
v -1.496875 1.562500 -2.495312
v -1.496875 0.625000 -2.557812
v -1.496875 0.625000 -2.495312
v -0.934375 1.625000 -1.495313
v -0.934375 1.625000 -2.495313
v -0.934375 0.562500 -1.495312
v -0.934375 0.562500 -2.495312
v -1.559375 1.625000 -2.495313
v -1.559375 1.625000 -1.495313
v -1.559375 0.562500 -2.495312
v -1.559375 0.562500 -1.495312
v -1.187500 1.312500 -0.228125
v -1.187500 1.312500 -1.478125
v -1.187500 1.187500 -0.228125
v -1.187500 1.187500 -1.478125
v -1.312500 1.312500 -1.478125
v -1.312500 1.312500 -0.228125
v -1.312500 1.187500 -1.478125
v -1.312500 1.187500 -0.228125
v -1.187500 0.812500 -0.228125
v -1.187500 0.812500 -1.478125
v -1.187500 0.687500 -0.228125
v -1.187500 0.687500 -1.478125
v -1.312500 0.812500 -1.478125
v -1.312500 0.812500 -0.228125
v -1.312500 0.687500 -1.478125
v -1.312500 0.687500 -0.228125
v 0.437500 1.250000 0.250000
v 0.437500 1.250000 -0.250000
v 0.437500 0.750000 0.250000
v 0.437500 0.750000 -0.250000
v -0.437500 1.250000 -0.250000
v -0.437500 1.250000 0.250000
v -0.437500 0.750000 -0.250000
v -0.437500 0.750000 0.250000
v 0.312500 1.062500 -0.312500
v 0.312500 1.062500 -1.437500
v 0.312500 0.437500 -0.312500
v 0.312500 0.437500 -1.437500
v -0.312500 1.062500 -1.437500
v -0.312500 1.062500 -0.312500
v -0.312500 0.437500 -1.437500
v -0.312500 0.437500 -0.312500
v 0.437500 1.250000 -0.437500
v 0.437500 1.250000 -1.312500
v 0.437500 0.750000 -0.437500
v 0.437500 0.750000 -1.312500
v -0.437500 1.250000 -1.312500
v -0.437500 1.250000 -0.437500
v -0.437500 0.750000 -1.312500
v -0.437500 0.750000 -0.437500
v 0.312500 1.062500 -1.562500
v 0.312500 1.062500 -2.187500
v 0.312500 0.437500 -1.562500
v 0.312500 0.437500 -2.187500
v -0.312500 1.062500 -2.187500
v -0.312500 1.062500 -1.562500
v -0.312500 0.437500 -2.187500
v -0.312500 0.437500 -1.562500
v 0.093750 1.250000 -1.781250
v 0.093750 1.250000 -1.968750
v 0.093750 1.062500 -1.781250
v 0.093750 1.062500 -1.968750
v -0.093750 1.250000 -1.968750
v -0.093750 1.250000 -1.781250
v -0.093750 1.062500 -1.968750
v -0.093750 1.062500 -1.781250
v 0.437500 0.875000 -1.750000
v 0.437500 0.875000 -2.000000
v 0.437500 0.625000 -1.750000
v 0.437500 0.625000 -2.000000
v 0.312500 0.875000 -2.000000
v 0.312500 0.875000 -1.750000
v 0.312500 0.625000 -2.000000
v 0.312500 0.625000 -1.750000
v -0.312500 0.875000 -1.750000
v -0.312500 0.875000 -2.000000
v -0.312500 0.625000 -1.750000
v -0.312500 0.625000 -2.000000
v -0.437500 0.875000 -2.000000
v -0.437500 0.875000 -1.750000
v -0.437500 0.625000 -2.000000
v -0.437500 0.625000 -1.750000
v 0.125000 0.875000 -1.437500
v 0.125000 0.875000 -1.562500
v 0.125000 0.625000 -1.437500
v 0.125000 0.625000 -1.562500
v -0.125000 0.875000 -1.562500
v -0.125000 0.875000 -1.437500
v -0.125000 0.625000 -1.562500
v -0.125000 0.625000 -1.437500
v 0.312500 1.062500 0.312500
v 0.312500 1.062500 -0.312500
v 0.312500 0.437500 0.312500
v 0.312500 0.437500 -0.312500
v -0.312500 1.062500 -0.312500
v -0.312500 1.062500 0.312500
v -0.312500 0.437500 -0.312500
v -0.312500 0.437500 0.312500
v 0.250000 1.500000 0.250000
v 0.250000 1.500000 -0.250000
v 0.250000 1.250000 0.250000
v 0.250000 1.250000 -0.250000
v -0.250000 1.500000 -0.250000
v -0.250000 1.500000 0.250000
v -0.250000 1.250000 -0.250000
v -0.250000 1.250000 0.250000
v 0.687500 0.977652 1.995894
v 0.687500 1.312500 1.187500
v 0.687500 0.919910 1.971977
v 0.687500 1.254758 1.163582
v 0.500000 1.312500 1.187500
v 0.500000 0.977652 1.995894
v 0.500000 1.254758 1.163582
v 0.500000 0.919910 1.971977
v 0.687500 1.312500 0.562500
v 0.687500 1.312500 -0.562500
v 0.687500 1.250000 0.562500
v 0.687500 1.250000 -0.562500
v 0.500000 1.312500 -0.562500
v 0.500000 1.312500 0.562500
v 0.500000 1.250000 -0.562500
v 0.500000 1.250000 0.562500
v 0.687500 0.625000 1.625000
v 0.687500 0.625000 -1.625000
v 0.687500 0.562500 1.625000
v 0.687500 0.562500 -1.625000
v 0.500000 0.625000 -1.625000
v 0.500000 0.625000 1.625000
v 0.500000 0.562500 -1.625000
v 0.500000 0.562500 1.625000
v 0.445083 0.809359 1.187500
v 0.445083 0.809359 1.000000
v 0.533471 0.720971 1.187500
v 0.533471 0.720971 1.000000
v 0.224112 0.588388 1.000000
v 0.224112 0.588388 1.187500
v 0.312500 0.500000 1.000000
v 0.312500 0.500000 1.187500
v 0.445083 0.809359 0.750000
v 0.445083 0.809359 0.562500
v 0.533471 0.720971 0.750000
v 0.533471 0.720971 0.562500
v 0.224112 0.588388 0.562500
v 0.224112 0.588388 0.750000
v 0.312500 0.500000 0.562500
v 0.312500 0.500000 0.750000
v 0.687500 1.312500 -1.187500
v 0.687500 0.977652 -1.995895
v 0.687500 1.254757 -1.163582
v 0.687500 0.919909 -1.971977
v 0.500000 0.977652 -1.995895
v 0.500000 1.312500 -1.187500
v 0.500000 0.919909 -1.971977
v 0.500000 1.254757 -1.163582
v -0.431250 1.381250 -0.556250
v -0.431250 1.381250 -1.193750
v -0.431250 0.681250 -0.556250
v -0.431250 0.681250 -1.193750
v -0.756250 1.381250 -1.193750
v -0.756250 1.381250 -0.556250
v -0.756250 0.681250 -1.193750
v -0.756250 0.681250 -0.556250
v -0.437500 1.000000 -1.625000
v -0.437500 1.000000 -2.125000
v -0.437500 0.500000 -1.625000
v -0.437500 0.500000 -2.125000
v -0.750000 1.000000 -2.125000
v -0.750000 1.000000 -1.625000
v -0.750000 0.500000 -2.125000
v -0.750000 0.500000 -1.625000
v -0.431250 1.381250 1.193750
v -0.431250 1.381250 0.556250
v -0.431250 0.681250 1.193750
v -0.431250 0.681250 0.556250
v -0.756250 1.381250 0.556250
v -0.756250 1.381250 1.193750
v -0.756250 0.681250 0.556250
v -0.756250 0.681250 1.193750
v 0.437500 1.250000 1.312500
v 0.437500 1.250000 0.437500
v 0.437500 0.750000 1.312500
v 0.437500 0.750000 0.437500
v -0.437500 1.250000 0.437500
v -0.437500 1.250000 1.312500
v -0.437500 0.750000 0.437500
v -0.437500 0.750000 1.312500
v 0.312500 1.062500 1.437500
v 0.312500 1.062500 0.312500
v 0.312500 0.437500 1.437500
v 0.312500 0.437500 0.312500
v -0.312500 1.062500 0.312500
v -0.312500 1.062500 1.437500
v -0.312500 0.437500 0.312500
v -0.312500 0.437500 1.437500
v 0.312500 1.062500 2.187500
v 0.312500 1.062500 1.562500
v 0.312500 0.437500 2.187500
v 0.312500 0.437500 1.562500
v -0.312500 1.062500 1.562500
v -0.312500 1.062500 2.187500
v -0.312500 0.437500 1.562500
v -0.312500 0.437500 2.187500
v 0.093750 1.250000 1.968750
v 0.093750 1.250000 1.781250
v 0.093750 1.062500 1.968750
v 0.093750 1.062500 1.781250
v -0.093750 1.250000 1.781250
v -0.093750 1.250000 1.968750
v -0.093750 1.062500 1.781250
v -0.093750 1.062500 1.968750
v -0.437500 1.000000 2.125000
v -0.437500 1.000000 1.625000
v -0.437500 0.500000 2.125000
v -0.437500 0.500000 1.625000
v -0.750000 1.000000 1.625000
v -0.750000 1.000000 2.125000
v -0.750000 0.500000 1.625000
v -0.750000 0.500000 2.125000
v 0.750000 1.000000 2.125000
v 0.750000 1.000000 1.625000
v 0.750000 0.500000 2.125000
v 0.750000 0.500000 1.625000
v 0.437500 1.000000 1.625000
v 0.437500 1.000000 2.125000
v 0.437500 0.500000 1.625000
v 0.437500 0.500000 2.125000
v 0.756250 1.381250 1.193750
v 0.756250 1.381250 0.556250
v 0.756250 0.681250 1.193750
v 0.756250 0.681250 0.556250
v 0.431250 1.381250 0.556250
v 0.431250 1.381250 1.193750
v 0.431250 0.681250 0.556250
v 0.431250 0.681250 1.193750
v 0.756250 1.381250 -0.556250
v 0.756250 1.381250 -1.193750
v 0.756250 0.681250 -0.556250
v 0.756250 0.681250 -1.193750
v 0.431250 1.381250 -1.193750
v 0.431250 1.381250 -0.556250
v 0.431250 0.681250 -1.193750
v 0.431250 0.681250 -0.556250
v 0.750000 1.000000 -1.625000
v 0.750000 1.000000 -2.125000
v 0.750000 0.500000 -1.625000
v 0.750000 0.500000 -2.125000
v 0.437500 1.000000 -2.125000
v 0.437500 1.000000 -1.625000
v 0.437500 0.500000 -2.125000
v 0.437500 0.500000 -1.625000
v 0.445083 0.809359 -1.000000
v 0.445083 0.809359 -1.187500
v 0.533471 0.720971 -1.000000
v 0.533471 0.720971 -1.187500
v 0.224112 0.588388 -1.187500
v 0.224112 0.588388 -1.000000
v 0.312500 0.500000 -1.187500
v 0.312500 0.500000 -1.000000
v 0.445083 0.809359 -0.562500
v 0.445083 0.809359 -0.750000
v 0.533471 0.720971 -0.562500
v 0.533471 0.720971 -0.750000
v 0.224112 0.588388 -0.750000
v 0.224112 0.588388 -0.562500
v 0.312500 0.500000 -0.750000
v 0.312500 0.500000 -0.562500
v -0.224112 0.588388 -1.000000
v -0.224112 0.588388 -1.187500
v -0.312500 0.500000 -1.000000
v -0.312500 0.500000 -1.187500
v -0.445083 0.809359 -1.187500
v -0.445083 0.809359 -1.000000
v -0.533471 0.720971 -1.187500
v -0.533471 0.720971 -1.000000
v -0.224112 0.588388 -0.562500
v -0.224112 0.588388 -0.750000
v -0.312500 0.500000 -0.562500
v -0.312500 0.500000 -0.750000
v -0.445083 0.809359 -0.750000
v -0.445083 0.809359 -0.562500
v -0.533471 0.720971 -0.750000
v -0.533471 0.720971 -0.562500
v -0.224112 0.588388 0.750000
v -0.224112 0.588388 0.562500
v -0.312500 0.500000 0.750000
v -0.312500 0.500000 0.562500
v -0.445083 0.809359 0.562500
v -0.445083 0.809359 0.750000
v -0.533471 0.720971 0.562500
v -0.533471 0.720971 0.750000
v -0.224112 0.588388 1.187500
v -0.224112 0.588388 1.000000
v -0.312500 0.500000 1.187500
v -0.312500 0.500000 1.000000
v -0.445083 0.809359 1.000000
v -0.445083 0.809359 1.187500
v -0.533471 0.720971 1.000000
v -0.533471 0.720971 1.187500
v -0.500000 1.312500 -1.187500
v -0.500000 0.977652 -1.995895
v -0.500000 1.254757 -1.163582
v -0.500000 0.919909 -1.971977
v -0.687500 0.977652 -1.995895
v -0.687500 1.312500 -1.187500
v -0.687500 0.919909 -1.971977
v -0.687500 1.254757 -1.163582
v -0.500000 1.312500 0.562500
v -0.500000 1.312500 -0.562500
v -0.500000 1.250000 0.562500
v -0.500000 1.250000 -0.562500
v -0.687500 1.312500 -0.562500
v -0.687500 1.312500 0.562500
v -0.687500 1.250000 -0.562500
v -0.687500 1.250000 0.562500
v -0.500000 0.977652 1.995894
v -0.500000 1.312500 1.187500
v -0.500000 0.919910 1.971977
v -0.500000 1.254758 1.163582
v -0.687500 1.312500 1.187500
v -0.687500 0.977652 1.995894
v -0.687500 1.254758 1.163582
v -0.687500 0.919910 1.971977
v 0.125000 0.875000 1.562500
v 0.125000 0.875000 1.437500
v 0.125000 0.625000 1.562500
v 0.125000 0.625000 1.437500
v -0.125000 0.875000 1.437500
v -0.125000 0.875000 1.562500
v -0.125000 0.625000 1.437500
v -0.125000 0.625000 1.562500
v 0.437500 0.875000 2.000000
v 0.437500 0.875000 1.750000
v 0.437500 0.625000 2.000000
v 0.437500 0.625000 1.750000
v 0.312500 0.875000 1.750000
v 0.312500 0.875000 2.000000
v 0.312500 0.625000 1.750000
v 0.312500 0.625000 2.000000
v -0.312500 0.875000 2.000000
v -0.312500 0.875000 1.750000
v -0.312500 0.625000 2.000000
v -0.312500 0.625000 1.750000
v -0.437500 0.875000 1.750000
v -0.437500 0.875000 2.000000
v -0.437500 0.625000 1.750000
v -0.437500 0.625000 2.000000
v 1.500000 1.625000 0.187500
v 1.500000 1.625000 0.062500
v 1.500000 1.500000 0.187500
v 1.500000 1.500000 0.062500
v 0.500000 1.625000 0.062500
v 0.500000 1.625000 0.187500
v 0.500000 1.500000 0.062500
v 0.500000 1.500000 0.187500
v -0.500000 1.625000 0.187500
v -0.500000 1.625000 0.062500
v -0.500000 1.500000 0.187500
v -0.500000 1.500000 0.062500
v -1.500000 1.625000 0.062500
v -1.500000 1.625000 0.187500
v -1.500000 1.500000 0.062500
v -1.500000 1.500000 0.187500
v -0.500000 0.625000 1.625000
v -0.500000 0.625000 -1.625000
v -0.500000 0.562500 1.625000
v -0.500000 0.562500 -1.625000
v -0.687500 0.625000 -1.625000
v -0.687500 0.625000 1.625000
v -0.687500 0.562500 -1.625000
v -0.687500 0.562500 1.625000
v 1.562500 1.625000 0.187500
v 1.562500 1.625000 -0.125000
v 1.562500 1.500000 0.187500
v 1.562500 1.500000 -0.125000
v 1.500000 1.625000 -0.125000
v 1.500000 1.625000 0.187500
v 1.500000 1.500000 -0.125000
v 1.500000 1.500000 0.187500
v -1.500000 1.625000 0.187500
v -1.500000 1.625000 -0.125000
v -1.500000 1.500000 0.187500
v -1.500000 1.500000 -0.125000
v -1.562500 1.625000 -0.125000
v -1.562500 1.625000 0.187500
v -1.562500 1.500000 -0.125000
v -1.562500 1.500000 0.187500
v -1.250000 1.625000 0.062500
v -1.250000 1.625000 -0.125000
v -1.250000 1.500000 0.062500
v -1.250000 1.500000 -0.125000
v -1.312500 1.625000 -0.125000
v -1.312500 1.625000 0.062500
v -1.312500 1.500000 -0.125000
v -1.312500 1.500000 0.062500
v 1.312500 1.625000 0.062500
v 1.312500 1.625000 -0.125000
v 1.312500 1.500000 0.062500
v 1.312500 1.500000 -0.125000
v 1.250000 1.625000 -0.125000
v 1.250000 1.625000 0.062500
v 1.250000 1.500000 -0.125000
v 1.250000 1.500000 0.062500
vn -0.0000 -1.0000 -0.0000
vn -0.0000 -0.0000 1.0000
vn -0.0000 -0.0000 -1.0000
vn -0.0000 1.0000 -0.0000
vn -0.7071 -0.7071 -0.0000
vn 0.7071 0.7071 -0.0000
vn -0.7071 0.7071 -0.0000
vn 0.7071 -0.7071 -0.0000
vn 1.0000 -0.0000 -0.0000
vn -1.0000 -0.0000 -0.0000
vn -0.0000 0.3827 -0.9239
vn -0.0000 -0.3827 0.9239
vn -0.0000 0.9239 0.3827
vn -0.0000 -0.9239 -0.3827
vn -0.0000 -0.3827 -0.9239
vn -0.0000 0.3827 0.9239
vn -0.0000 0.9239 -0.3827
vn -0.0000 -0.9239 0.3827
vt 0.124619 0.500000
vt 0.500000 0.625000
vt 0.500000 0.500000
vt 0.500000 0.406250
vt 0.836548 0.500000
vt 0.875381 0.406250
vt 0.163452 0.500000
vt 0.124619 0.406250
vt 0.836549 0.625000
vt 0.163452 0.625000
vt 0.163451 0.500000
vt 0.875381 0.625000
vt 0.875381 0.500000
vt 0.124619 0.625000
vt 0.000000 0.062500
vt 0.062500 0.062500
vt 0.062500 0.187500
vt 0.000000 0.187500
vt 0.312500 0.125000
vt 0.375000 0.125000
vt 0.375000 0.187500
vt 0.312500 0.187500
vt 0.125000 0.062500
vt 0.187500 0.062500
vt 0.187500 0.125000
vt 0.125000 0.125000
vt 0.000000 0.000000
vt 0.593750 0.000000
vt 0.593750 0.062500
vt 0.250000 0.062500
vt 0.250000 0.125000
vt 0.312500 0.062500
vt 0.593750 0.125000
vt 0.160714 0.651786
vt 0.160714 0.633929
vt 0.178571 0.633929
vt 0.178571 0.651786
vt 0.187500 0.633929
vt 0.008929 0.633929
vt 0.008929 0.651786
vt 0.187500 0.651786
vt 0.169643 0.633929
vt 0.169643 0.651786
vt 0.714286 0.428571
vt 0.642857 0.428571
vt 0.642857 0.562500
vt 0.714286 0.562500
vt 0.705357 0.428571
vt 0.705357 0.562500
vt 0.633929 0.428571
vt 0.562500 0.428571
vt 0.562500 0.562500
vt 0.633929 0.562500
vt 0.651786 0.428571
vt 0.651786 0.562500
vt 0.642857 0.553571
vt 0.714286 0.553571
vt 0.714286 0.437500
vt 0.642857 0.437500
vt 0.357143 0.312500
vt 0.446429 0.312500
vt 0.446429 0.464286
vt 0.357143 0.464286
vt 0.214286 0.312500
vt 0.214286 0.464286
vt 0.357143 0.473214
vt 0.357143 0.562500
vt 0.214286 0.562500
vt 0.214286 0.473214
vt 0.571429 0.428571
vt 0.571429 0.562500
vt 0.625000 0.428571
vt 0.625000 0.562500
vt 0.633929 0.553571
vt 0.562500 0.553571
vt 0.562500 0.437500
vt 0.633929 0.437500
vt 0.291667 0.000000
vt 0.291667 0.166667
vt 0.000000 0.166667
vt 0.458333 0.166667
vt 0.458333 0.333333
vt 0.291667 0.333333
vt 0.000000 0.333333
vt 0.687500 0.687500
vt 1.000000 0.687500
vt 1.000000 1.000000
vt 0.687500 1.000000
vt 0.312500 0.000000
vt 0.312500 0.562500
vt 0.000000 0.562500
vt 0.062500 0.000000
vt 0.156250 0.000000
vt 0.156250 0.125000
vt 0.062500 0.125000
vt 0.312500 0.312500
vt 0.750000 0.312500
vt 0.750000 0.562500
vt 0.687500 0.562500
vt 0.437500 1.000000
vt 0.437500 0.562500
vt 0.000000 1.000000
vt 0.937500 0.000000
vt 0.625000 0.000000
vt 0.625000 0.312500
vt 0.937500 0.312500
vt 0.625000 0.375000
vt 0.718750 0.375000
vt 0.718750 0.468750
vt 0.625000 0.468750
vt 0.812500 0.375000
vt 0.812500 0.468750
vt 0.000000 0.625000
vt 0.187500 0.625000
vt 0.187500 0.812500
vt 0.000000 0.812500
vt 0.625000 0.125000
vt 0.375000 0.000000
vt 0.500000 0.218750
vt 1.000000 0.218750
vt 1.000000 0.500000
vt 0.000000 0.750000
vt 0.250000 0.750000
vt 0.250000 0.500000
vt 0.000000 0.500000
vt 0.093750 0.000000
vt 0.187500 0.000000
vt 0.093750 0.125000
vt 0.125000 0.000000
vt 0.125000 0.093750
vt 0.093750 0.093750
vt 0.125000 0.333333
vt 0.291667 0.416667
vt 0.125000 0.416667
vt 0.562500 0.812500
vt 0.729167 0.812500
vt 0.729167 0.979167
vt 0.562500 0.979167
vt 0.500000 1.000000
vt 0.000000 0.937500
vt 0.187500 0.937500
vt 0.187500 1.000000
vt 0.000000 0.533654
vt 0.071154 0.533654
vt 0.071154 0.537500
vt 0.000000 0.537500
vt 0.000000 0.524038
vt 0.071154 0.524038
vt 0.071154 0.527885
vt 0.000000 0.527885
vt 0.086538 0.610577
vt 0.000000 0.610577
vt 0.000000 0.615385
vt 0.086538 0.615385
vt 0.000000 0.600962
vt 0.086538 0.600962
vt 0.086538 0.605769
vt 0.000000 0.605769
vt 0.000000 0.687500
vt 0.250000 0.687500
vt 0.250000 0.692308
vt 0.000000 0.692308
vt 0.250000 0.677885
vt 0.000000 0.677885
vt 0.000000 0.682692
vt 0.250000 0.682692
vt 0.812500 0.531250
vt 0.750000 0.531250
vt 0.750000 0.375000
vt 0.687500 0.625000
vt 0.718750 0.625000
vt 0.718750 0.687500
vt 0.906250 0.375000
vt 0.906250 0.531250
vt 0.375000 0.937500
vt 0.375000 1.000000
vt 0.812500 0.656250
vt 0.968750 0.656250
vt 0.968750 1.000000
vt 0.812500 1.000000
vt 0.500000 0.656250
vt 0.812500 0.500000
vt 0.656250 0.000000
vt 0.500000 0.000000
vt 0.500000 0.250000
vt 0.656250 0.250000
vt 0.343750 0.031250
vt 0.593750 0.031250
vt 0.593750 0.281250
vt 0.343750 0.281250
vt 0.812500 0.000000
vt 0.812500 0.250000
vt 0.750000 0.250000
vt 0.750000 0.500000
vt 0.142857 0.571429
vt 0.000000 0.571429
vt 0.000000 0.553571
vt 0.142857 0.553571
vt 0.107143 0.571429
vt 0.125000 0.571429
vt 0.125000 0.553571
vt 0.107143 0.553571
vt 0.178571 0.000000
vt 0.187500 0.017857
vt 0.178571 0.017857
vt 0.223214 0.000000
vt 0.223214 0.017857
vt 0.214286 0.000000
vt 0.214286 0.017857
vt 0.223214 0.008929
vt 0.178571 0.008929
vt 0.178571 0.000000
vt 0.223214 0.000000
vt 0.205357 0.000000
vt 0.205357 0.017857
vt 0.205357 0.008929
vt 0.205357 0.000000
s 1
usemtl m_4a34e532-a54f-25b2-fb9b-20a09160c5ec
f 1/1/1 2/2/1 3/3/1
f 2/4/2 4/5/2 5/6/2
f 3/4/3 6/7/3 1/8/3
f 7/3/4 4/9/4 8/2/4
f 6/7/4 8/2/4 9/10/4
f 10/5/3 3/4/3 11/6/3
f 9/11/2 2/4/2 12/8/2
f 3/3/1 5/12/1 11/13/1
f 1/1/1 12/14/1 2/2/1
f 2/4/2 8/3/2 4/5/2
f 3/4/3 7/3/3 6/7/3
f 7/3/4 10/5/4 4/9/4
f 6/7/4 7/3/4 8/2/4
f 10/5/3 7/3/3 3/4/3
f 9/11/2 8/3/2 2/4/2
f 3/3/1 2/2/1 5/12/1
f 13/1/5 14/2/5 15/3/5
f 15/4/3 16/7/3 13/8/3
f 16/7/6 17/2/6 18/10/6
f 18/11/2 14/4/2 19/8/2
f 13/1/5 19/14/5 14/2/5
f 15/4/3 20/3/3 16/7/3
f 16/7/6 20/3/6 17/2/6
f 18/11/2 17/3/2 14/4/2
f 21/4/2 22/5/2 23/6/2
f 24/3/7 22/9/7 25/2/7
f 26/5/3 27/4/3 28/6/3
f 27/3/8 23/12/8 28/13/8
f 21/4/2 25/3/2 22/5/2
f 24/3/7 26/5/7 22/9/7
f 26/5/3 24/3/3 27/4/3
f 27/3/8 21/2/8 23/12/8
usemtl m_4ab3f651-4f22-0271-1410-0aebf5fe8517
f 32/15/3 35/16/3 33/17/3 30/18/3
f 31/15/9 32/16/9 30/17/9 29/18/9
f 36/15/2 31/16/2 29/17/2 34/18/2
f 35/15/10 36/16/10 34/17/10 33/18/10
f 34/19/4 29/20/4 30/21/4 33/22/4
f 35/19/1 32/20/1 31/21/1 36/22/1
f 40/23/3 43/24/3 41/25/3 38/26/3
f 39/27/9 40/28/9 38/29/9 37/15/9
f 44/24/2 39/30/2 37/31/2 42/25/2
f 43/29/10 44/15/10 42/27/10 41/28/10
f 42/27/4 37/15/4 38/29/4 41/28/4
f 43/29/1 40/28/1 39/27/1 44/15/1
f 48/23/3 51/24/3 49/25/3 46/26/3
f 47/32/9 48/29/9 46/33/9 45/19/9
f 52/30/2 47/32/2 45/19/2 50/31/2
f 51/33/10 52/19/10 50/32/10 49/29/10
f 50/32/4 45/19/4 46/33/4 49/29/4
f 51/32/1 48/19/1 47/33/1 52/29/1
f 56/16/3 59/15/3 57/18/3 54/17/3
f 55/16/9 56/15/9 54/18/9 53/17/9
f 60/16/2 55/15/2 53/18/2 58/17/2
f 59/16/10 60/15/10 58/18/10 57/17/10
f 58/20/4 53/19/4 54/22/4 57/21/4
f 59/20/1 56/19/1 55/22/1 60/21/1
f 64/24/3 67/23/3 65/26/3 62/25/3
f 63/15/9 64/29/9 62/28/9 61/27/9
f 68/30/2 63/24/2 61/25/2 66/31/2
f 67/28/10 68/27/10 66/15/10 65/29/10
f 66/15/4 61/27/4 62/28/4 65/29/4
f 67/28/1 64/29/1 63/15/1 68/27/1
f 72/24/3 75/23/3 73/26/3 70/25/3
f 71/19/9 72/33/9 70/29/9 69/32/9
f 76/32/2 71/30/2 69/31/2 74/19/2
f 75/29/10 76/32/10 74/19/10 73/33/10
f 74/19/4 69/32/4 70/29/4 73/33/4
f 75/19/1 72/32/1 71/29/1 76/33/1
usemtl m_a04509b2-9e79-7152-ac01-54b87f7e5258
f 80/34/3 83/35/3 81/36/3 78/37/3
f 79/38/9 80/39/9 78/40/9 77/41/9
f 84/42/2 79/38/2 77/41/2 82/43/2
f 83/40/10 84/41/10 82/38/10 81/39/10
f 82/38/4 77/41/4 78/40/4 81/39/4
f 83/40/1 80/39/1 79/38/1 84/41/1
f 88/34/3 91/35/3 89/36/3 86/37/3
f 87/38/9 88/39/9 86/40/9 85/41/9
f 92/42/2 87/38/2 85/41/2 90/43/2
f 91/40/10 92/41/10 90/38/10 89/39/10
f 90/38/4 85/41/4 86/40/4 89/39/4
f 91/40/1 88/39/1 87/38/1 92/41/1
f 96/44/3 99/45/3 97/46/3 94/47/3
f 95/44/9 96/48/9 94/49/9 93/47/9
f 100/50/2 95/51/2 93/52/2 98/53/2
f 99/54/10 100/45/10 98/46/10 97/55/10
f 98/56/4 93/57/4 94/47/4 97/46/4
f 99/45/1 96/44/1 95/58/1 100/59/1
f 104/60/3 107/61/3 105/62/3 102/63/3
f 103/64/9 104/60/9 102/63/9 101/65/9
f 108/60/2 103/61/2 101/62/2 106/63/2
f 107/60/10 108/64/10 106/65/10 105/63/10
f 106/66/4 101/67/4 102/68/4 105/69/4
f 107/66/1 104/67/1 103/68/1 108/69/1
f 112/44/3 115/45/3 113/46/3 110/47/3
f 111/70/9 112/51/9 110/52/9 109/71/9
f 116/50/2 111/51/2 109/52/2 114/53/2
f 115/50/10 116/72/10 114/73/10 113/53/10
f 114/74/4 109/75/4 110/52/4 113/53/4
f 115/50/1 112/51/1 111/76/1 116/77/1
f 120/45/3 123/44/3 121/47/3 118/46/3
f 119/72/9 120/50/9 118/53/9 117/73/9
f 124/51/2 119/50/2 117/53/2 122/52/2
f 123/51/10 124/70/10 122/71/10 121/52/10
f 122/75/4 117/74/4 118/53/4 121/52/4
f 123/51/1 120/50/1 119/77/1 124/76/1
f 128/45/3 131/44/3 129/47/3 126/46/3
f 127/45/9 128/54/9 126/55/9 125/46/9
f 132/51/2 127/50/2 125/53/2 130/52/2
f 131/48/10 132/44/10 130/47/10 129/49/10
f 130/57/4 125/56/4 126/46/4 129/47/4
f 131/44/1 128/45/1 127/59/1 132/58/1
f 136/61/3 139/60/3 137/63/3 134/62/3
f 135/64/9 136/60/9 134/63/9 133/65/9
f 140/61/2 135/60/2 133/63/2 138/62/2
f 139/60/10 140/64/10 138/65/10 137/63/10
f 138/67/4 133/66/4 134/69/4 137/68/4
f 139/67/1 136/66/1 135/69/1 140/68/1
f 144/35/3 147/34/3 145/37/3 142/36/3
f 143/41/9 144/40/9 142/39/9 141/38/9
f 148/38/2 143/42/2 141/43/2 146/41/2
f 147/39/10 148/38/10 146/41/10 145/40/10
f 146/41/4 141/38/4 142/39/4 145/40/4
f 147/39/1 144/40/1 143/41/1 148/38/1
f 152/35/3 155/34/3 153/37/3 150/36/3
f 151/41/9 152/40/9 150/39/9 149/38/9
f 156/38/2 151/42/2 149/43/2 154/41/2
f 155/39/10 156/38/10 154/41/10 153/40/10
f 154/41/4 149/38/4 150/39/4 153/40/4
f 155/39/1 152/40/1 151/41/1 156/38/1
f 480/195/3 483/196/3 481/197/3 478/198/3
f 479/199/9 480/200/9 478/201/9 477/202/9
f 484/197/2 479/198/2 477/195/2 482/196/2
f 483/200/10 484/199/10 482/202/10 481/201/10
f 482/196/4 477/195/4 478/198/4 481/197/4
f 483/196/1 480/195/1 479/198/1 484/197/1
f 488/196/3 491/195/3 489/198/3 486/197/3
f 487/200/9 488/199/9 486/202/9 485/201/9
f 492/198/2 487/197/2 485/196/2 490/195/2
f 491/200/10 492/199/10 490/202/10 489/201/10
f 490/195/4 485/196/4 486/197/4 489/198/4
f 491/195/1 488/196/1 487/197/1 492/198/1
f 504/203/3 507/127/3 505/204/3 502/205/3
f 503/206/9 504/203/9 502/205/9 501/207/9
f 508/208/2 503/206/2 501/207/2 506/209/2
f 507/203/10 508/206/10 506/207/10 505/205/10
f 506/210/4 501/207/4 502/205/4 505/211/4
f 507/212/1 504/211/1 503/210/1 508/213/1
f 512/127/3 515/203/3 513/205/3 510/204/3
f 511/206/9 512/203/9 510/205/9 509/207/9
f 516/206/2 511/208/2 509/209/2 514/207/2
f 515/203/10 516/206/10 514/207/10 513/205/10
f 514/207/4 509/210/4 510/211/4 513/205/4
f 515/211/1 512/212/1 511/213/1 516/210/1
f 520/127/3 523/203/3 521/205/3 518/204/3
f 519/214/9 520/203/9 518/205/9 517/215/9
f 524/206/2 519/208/2 517/209/2 522/207/2
f 523/203/10 524/214/10 522/215/10 521/205/10
f 522/215/4 517/216/4 518/211/4 521/205/4
f 523/211/1 520/212/1 519/217/1 524/216/1
f 528/127/3 531/203/3 529/205/3 526/204/3
f 527/214/9 528/203/9 526/205/9 525/215/9
f 532/206/2 527/208/2 525/209/2 530/207/2
f 531/203/10 532/214/10 530/215/10 529/205/10
f 530/215/4 525/216/4 526/211/4 529/205/4
f 531/211/1 528/212/1 527/217/1 532/216/1
usemtl m_f717a10c-056c-64e3-3e10-1f95ab8de21e
f 160/27/3 163/78/3 161/79/3 158/80/3
f 159/81/9 160/82/9 158/83/9 157/79/9
f 164/27/2 159/78/2 157/79/2 162/80/2
f 163/81/10 164/82/10 162/83/10 161/79/10
f 162/80/4 157/79/4 158/83/4 161/84/4
f 163/80/1 160/79/1 159/83/1 164/84/1
f 232/132/3 235/83/3 233/133/3 230/134/3
f 231/132/9 232/83/9 230/133/9 229/134/9
f 236/132/2 231/83/2 229/133/2 234/134/2
f 235/132/10 236/83/10 234/133/10 233/134/10
f 234/135/4 229/136/4 230/137/4 233/138/4
f 235/125/1 232/3/1 231/139/1 236/102/1
usemtl m_e0ac4705-0fba-dce9-0804-8cef2b559576
f 168/85/3 171/86/3 169/87/3 166/88/3
f 167/89/9 168/90/9 166/91/9 165/27/9
f 171/89/10 172/90/10 170/91/10 169/27/10
f 170/27/4 165/89/4 166/90/4 169/91/4
f 171/27/1 168/89/1 167/90/1 172/91/1
f 176/96/3 179/97/3 177/98/3 174/90/3
f 175/99/9 176/88/9 174/100/9 173/101/9
f 180/96/2 175/97/2 173/98/2 178/90/2
f 179/99/10 180/88/10 178/100/10 177/101/10
f 178/101/4 173/91/4 174/102/4 177/100/4
f 179/101/1 176/91/1 175/102/1 180/100/1
f 184/103/3 187/104/3 185/105/3 182/106/3
f 183/89/9 184/104/9 182/105/9 181/96/9
f 188/89/2 183/104/2 181/105/2 186/96/2
f 187/89/10 188/104/10 186/105/10 185/96/10
f 186/105/4 181/106/4 182/103/4 185/104/4
f 187/105/1 184/106/1 183/103/1 188/104/1
f 223/104/9 224/103/9 222/106/9 221/105/9
f 227/104/10 228/103/10 226/106/10 225/105/10
f 226/105/4 221/106/4 222/103/4 225/104/4
f 227/104/1 224/103/1 223/106/1 228/105/1
f 264/111/3 267/167/3 265/168/3 262/169/3
f 263/170/6 264/171/6 262/172/6 261/85/6
f 268/111/2 263/167/2 261/168/2 266/169/2
f 267/170/5 268/171/5 266/172/5 265/85/5
f 266/173/7 261/174/7 262/167/7 265/111/7
f 267/173/8 264/174/8 263/167/8 268/111/8
f 272/111/3 275/167/3 273/168/3 270/169/3
f 271/170/6 272/171/6 270/172/6 269/85/6
f 276/111/2 271/167/2 269/168/2 274/169/2
f 275/170/5 276/171/5 274/172/5 273/85/5
f 274/173/7 269/174/7 270/167/7 273/111/7
f 275/173/8 272/174/8 271/167/8 276/111/8
f 295/187/9 296/188/9 294/189/9 293/190/9
f 312/97/3 315/96/3 313/90/3 310/98/3
f 311/88/9 312/99/9 310/101/9 309/100/9
f 316/97/2 311/96/2 309/90/2 314/98/2
f 315/88/10 316/99/10 314/101/10 313/100/10
f 314/100/4 309/102/4 310/91/4 313/101/4
f 315/100/1 312/102/1 311/91/1 316/101/1
f 319/90/9 320/89/9 318/27/9 317/91/9
f 324/86/2 319/85/2 317/88/2 322/87/2
f 323/90/10 324/89/10 322/27/10 321/91/10
f 322/91/4 317/90/4 318/89/4 321/27/4
f 323/91/1 320/90/1 319/89/1 324/27/1
f 328/104/3 331/89/3 329/96/3 326/105/3
f 327/104/9 328/89/9 326/96/9 325/105/9
f 332/104/2 327/103/2 325/106/2 330/105/2
f 331/104/10 332/89/10 330/96/10 329/105/10
f 330/104/4 325/103/4 326/106/4 329/105/4
f 331/104/1 328/103/1 327/106/1 332/105/1
f 343/188/9 344/187/9 342/190/9 341/189/9
f 355/187/10 356/188/10 354/189/10 353/190/10
f 379/188/10 380/187/10 378/190/10 377/189/10
f 384/111/3 387/167/3 385/168/3 382/169/3
f 383/170/6 384/171/6 382/172/6 381/85/6
f 388/111/2 383/167/2 381/168/2 386/169/2
f 387/170/5 388/171/5 386/172/5 385/85/5
f 386/173/7 381/174/7 382/167/7 385/111/7
f 387/173/8 384/174/8 383/167/8 388/111/8
f 392/111/3 395/167/3 393/168/3 390/169/3
f 391/170/6 392/171/6 390/172/6 389/85/6
f 396/111/2 391/167/2 389/168/2 394/169/2
f 395/170/5 396/171/5 394/172/5 393/85/5
f 394/173/7 389/174/7 390/167/7 393/111/7
f 395/173/8 392/174/8 391/167/8 396/111/8
f 400/167/3 403/111/3 401/169/3 398/168/3
f 399/171/8 400/170/8 398/85/8 397/172/8
f 404/167/2 399/111/2 397/169/2 402/168/2
f 403/171/7 404/170/7 402/85/7 401/172/7
f 402/174/6 397/173/6 398/111/6 401/167/6
f 403/174/5 400/173/5 399/111/5 404/167/5
f 408/167/3 411/111/3 409/169/3 406/168/3
f 407/171/8 408/170/8 406/85/8 405/172/8
f 412/167/2 407/111/2 405/169/2 410/168/2
f 411/171/7 412/170/7 410/85/7 409/172/7
f 410/174/6 405/173/6 406/111/6 409/167/6
f 411/174/5 408/173/5 407/111/5 412/167/5
f 416/167/3 419/111/3 417/169/3 414/168/3
f 415/171/8 416/170/8 414/85/8 413/172/8
f 420/167/2 415/111/2 413/169/2 418/168/2
f 419/171/7 420/170/7 418/85/7 417/172/7
f 418/174/6 413/173/6 414/111/6 417/167/6
f 419/174/5 416/173/5 415/111/5 420/167/5
f 424/167/3 427/111/3 425/169/3 422/168/3
f 423/171/8 424/170/8 422/85/8 421/172/8
f 428/167/2 423/111/2 421/169/2 426/168/2
f 427/171/7 428/170/7 426/85/7 425/172/7
f 426/174/6 421/173/6 422/111/6 425/167/6
f 427/174/5 424/173/5 423/111/5 428/167/5
usemtl m_4788cc9f-7512-d255-636b-0bf5a7f94e2a
f 172/92/2 167/93/2 165/94/2 170/95/2
f 224/126/3 227/127/3 225/25/3 222/128/3
f 228/126/2 223/129/2 221/130/2 226/131/2
f 288/177/3 291/178/3 289/179/3 286/180/3
f 287/181/9 288/177/9 286/180/9 285/139/9
f 292/177/2 287/178/2 285/179/2 290/180/2
f 291/181/10 292/177/10 290/180/10 289/139/10
f 290/182/4 285/177/4 286/181/4 289/3/4
f 291/182/1 288/177/1 287/181/1 292/3/1
f 296/183/3 299/184/3 297/185/3 294/186/3
f 300/183/2 295/191/2 293/192/2 298/186/2
f 299/185/10 300/193/10 298/194/10 297/3/10
f 298/186/4 293/192/4 294/191/4 297/183/4
f 299/184/1 296/183/1 295/186/1 300/185/1
f 304/178/3 307/177/3 305/180/3 302/179/3
f 303/177/9 304/181/9 302/139/9 301/180/9
f 308/178/2 303/177/2 301/180/2 306/179/2
f 307/177/10 308/181/10 306/139/10 305/180/10
f 306/3/4 301/181/4 302/177/4 305/182/4
f 307/3/1 304/181/1 303/177/1 308/182/1
f 320/93/3 323/92/3 321/95/3 318/94/3
f 344/191/3 347/183/3 345/186/3 342/192/3
f 348/184/2 343/183/2 341/186/2 346/185/2
f 347/193/10 348/185/10 346/3/10 345/194/10
f 346/183/4 341/191/4 342/192/4 345/186/4
f 347/185/1 344/186/1 343/183/1 348/184/1
f 352/183/3 355/191/3 353/192/3 350/186/3
f 351/185/9 352/193/9 350/194/9 349/3/9
f 356/183/2 351/184/2 349/185/2 354/186/2
f 354/191/4 349/183/4 350/186/4 353/192/4
f 355/186/1 352/185/1 351/184/1 356/183/1
f 360/177/3 363/178/3 361/179/3 358/180/3
f 359/181/9 360/177/9 358/180/9 357/139/9
f 364/177/2 359/178/2 357/179/2 362/180/2
f 363/181/10 364/177/10 362/180/10 361/139/10
f 362/181/4 357/3/4 358/182/4 361/177/4
f 363/181/1 360/3/1 359/182/1 364/177/1
f 368/178/3 371/177/3 369/180/3 366/179/3
f 367/177/9 368/181/9 366/139/9 365/180/9
f 372/178/2 367/177/2 365/180/2 370/179/2
f 371/177/10 372/181/10 370/139/10 369/180/10
f 370/177/4 365/182/4 366/3/4 369/181/4
f 371/177/1 368/182/1 367/3/1 372/181/1
f 376/184/3 379/183/3 377/186/3 374/185/3
f 375/193/9 376/185/9 374/3/9 373/194/9
f 380/191/2 375/183/2 373/186/2 378/192/2
f 378/192/4 373/186/4 374/183/4 377/191/4
f 379/183/1 376/184/1 375/185/1 380/186/1
usemtl m_d9d69c3a-5ba3-3bbe-30c9-f864775ef81e
f 192/107/3 195/108/3 193/109/3 190/110/3
f 191/107/9 192/108/9 190/109/9 189/110/9
f 196/107/2 191/108/2 189/109/2 194/110/2
f 195/107/10 196/108/10 194/109/10 193/110/10
f 194/108/4 189/111/4 190/112/4 193/109/4
f 195/113/1 192/114/1 191/115/1 196/116/1
f 336/108/3 339/107/3 337/110/3 334/109/3
f 335/108/9 336/107/9 334/110/9 333/109/9
f 340/108/2 335/107/2 333/110/2 338/109/2
f 339/108/10 340/107/10 338/110/10 337/109/10
f 338/109/4 333/112/4 334/111/4 337/108/4
f 339/116/1 336/115/1 335/114/1 340/113/1
usemtl m_c7eaf5d9-77af-7f7c-31ee-3bf5ba2d7259
f 200/104/3 203/117/3 201/20/3 198/118/3
f 199/119/9 200/120/9 198/121/9 197/3/9
f 204/104/2 199/117/2 197/20/2 202/118/2
f 203/119/10 204/120/10 202/121/10 201/3/10
f 202/104/4 197/117/4 198/20/4 201/118/4
f 203/104/1 200/117/1 199/20/1 204/118/1
f 208/104/3 211/117/3 209/20/3 206/118/3
f 207/119/9 208/120/9 206/121/9 205/3/9
f 212/104/2 207/117/2 205/20/2 210/118/2
f 211/119/10 212/120/10 210/121/10 209/3/10
f 210/104/4 205/117/4 206/20/4 209/118/4
f 211/104/1 208/117/1 207/20/1 212/118/1
f 216/122/3 219/123/3 217/124/3 214/125/3
f 215/104/9 216/117/9 214/20/9 213/118/9
f 220/122/2 215/123/2 213/124/2 218/125/2
f 219/104/10 220/117/10 218/20/10 217/118/10
f 218/118/4 213/104/4 214/117/4 217/20/4
f 219/118/1 216/104/1 215/117/1 220/20/1
f 456/123/3 459/122/3 457/125/3 454/124/3
f 455/117/9 456/104/9 454/118/9 453/20/9
f 460/123/2 455/122/2 453/125/2 458/124/2
f 459/117/10 460/104/10 458/118/10 457/20/10
f 458/20/4 453/117/4 454/104/4 457/118/4
f 459/20/1 456/117/1 455/104/1 460/118/1
f 464/117/3 467/104/3 465/118/3 462/20/3
f 463/120/9 464/119/9 462/3/9 461/121/9
f 468/117/2 463/104/2 461/118/2 466/20/2
f 467/120/10 468/119/10 466/3/10 465/121/10
f 466/118/4 461/20/4 462/117/4 465/104/4
f 467/118/1 464/20/1 463/117/1 468/104/1
f 472/117/3 475/104/3 473/118/3 470/20/3
f 471/120/9 472/119/9 470/3/9 469/121/9
f 476/117/2 471/104/2 469/118/2 474/20/2
f 475/120/10 476/119/10 474/3/10 473/121/10
f 474/118/4 469/20/4 470/117/4 473/104/4
f 475/118/1 472/20/1 471/117/1 476/104/1
usemtl none
f 240/140/11 243/141/11 241/142/11 238/102/11
f 244/140/12 239/141/12 237/142/12 242/102/12
f 248/140/3 251/141/3 249/142/3 246/102/3
f 252/140/2 247/141/2 245/142/2 250/102/2
f 256/140/3 259/141/3 257/142/3 254/102/3
f 260/140/2 255/141/2 253/142/2 258/102/2
f 280/141/15 283/175/15 281/176/15 278/142/15
f 284/141/16 279/175/16 277/176/16 282/142/16
f 432/175/15 435/141/15 433/142/15 430/176/15
f 436/175/16 431/141/16 429/142/16 434/176/16
f 440/141/3 443/140/3 441/102/3 438/142/3
f 444/141/2 439/140/2 437/102/2 442/142/2
f 448/141/11 451/140/11 449/102/11 446/142/11
f 452/141/12 447/140/12 445/102/12 450/142/12
f 496/140/3 499/141/3 497/142/3 494/102/3
f 500/140/2 495/141/2 493/142/2 498/102/2
usemtl m_cef2cace-d399-3312-f09c-a6fc20c5d500
f 239/143/9 240/144/9 238/145/9 237/146/9
f 243/147/10 244/148/10 242/149/10 241/150/10
f 242/147/13 237/146/13 238/145/13 241/148/13
f 243/148/14 240/145/14 239/146/14 244/147/14
f 247/151/9 248/152/9 246/153/9 245/154/9
f 251/155/10 252/156/10 250/157/10 249/158/10
f 250/156/4 245/154/4 246/153/4 249/155/4
f 251/156/1 248/154/1 247/153/1 252/155/1
f 255/159/9 256/160/9 254/161/9 253/162/9
f 259/163/10 260/164/10 258/165/10 257/166/10
f 258/163/4 253/161/4 254/162/4 257/164/4
f 259/163/1 256/161/1 255/162/1 260/164/1
f 279/143/9 280/144/9 278/145/9 277/146/9
f 283/147/10 284/148/10 282/149/10 281/150/10
f 282/147/17 277/146/17 278/145/17 281/148/17
f 283/148/18 280/145/18 279/146/18 284/147/18
f 431/148/9 432/147/9 430/150/9 429/149/9
f 435/144/10 436/143/10 434/146/10 433/145/10
f 434/146/17 429/147/17 430/148/17 433/145/17
f 435/145/18 432/148/18 431/147/18 436/146/18
f 439/156/9 440/155/9 438/158/9 437/157/9
f 443/151/10 444/152/10 442/153/10 441/154/10
f 442/154/4 437/156/4 438/155/4 441/153/4
f 443/154/1 440/156/1 439/155/1 444/153/1
f 447/148/9 448/147/9 446/150/9 445/149/9
f 451/144/10 452/143/10 450/146/10 449/145/10
f 450/146/13 445/147/13 446/148/13 449/145/13
f 451/145/14 448/148/14 447/147/14 452/146/14
f 495/164/9 496/163/9 494/166/9 493/165/9
f 499/160/10 500/159/10 498/162/10 497/161/10
f 498/161/4 493/163/4 494/164/4 497/162/4
f 499/161/1 496/163/1 495/164/1 500/162/1
