# Blender 4.3.2
# www.blender.org
mtllib left_p_rod.mtl
o Rod
v -1.187500 1.125000 -0.842188
v -1.187500 1.125000 -1.717188
v -1.187500 0.875000 -0.842188
v -1.187500 0.875000 -1.717188
v -1.312500 1.125000 -1.717188
v -1.312500 1.125000 -0.842188
v -1.312500 0.875000 -1.717188
v -1.312500 0.875000 -0.842188
v -1.125000 1.125000 -0.543750
v -1.125000 1.125000 -0.793750
v -1.125000 0.875000 -0.543750
v -1.125000 0.875000 -0.793750
v -1.375000 1.125000 -0.793750
v -1.375000 1.125000 -0.543750
v -1.375000 0.875000 -0.793750
v -1.375000 0.875000 -0.543750
v -1.312500 0.875000 -0.606250
v -1.312500 0.875000 -0.731250
v -1.312500 0.562500 -0.606250
v -1.312500 0.562500 -0.731250
v -1.375000 0.875000 -0.731250
v -1.375000 0.875000 -0.606250
v -1.375000 0.562500 -0.731250
v -1.375000 0.562500 -0.606250
v -1.171875 1.265625 -0.871875
v -1.328125 1.265625 -0.871875
v -1.171875 0.734375 -0.871875
v -1.328125 0.734375 -0.871875
v -1.328125 1.265625 -0.465625
v -1.171875 1.265625 -0.465625
v -1.328125 0.734375 -0.465625
v -1.171875 0.734375 -0.465625
vn -0.0000 -0.0000 -1.0000
vn 1.0000 -0.0000 -0.0000
vn -0.0000 -0.0000 1.0000
vn -1.0000 -0.0000 -0.0000
vn -0.0000 1.0000 -0.0000
vn -0.0000 -1.0000 -0.0000
vt 0.955357 0.223214
vt 0.973214 0.223214
vt 0.973214 0.258929
vt 0.955357 0.258929
vt 0.857143 0.223214
vt 0.982143 0.223214
vt 0.982143 0.258929
vt 0.857143 0.258929
vt 0.875000 0.223214
vt 0.875000 0.258929
vt 0.857143 0.241071
vt 0.982143 0.241071
vt 0.928571 0.071429
vt 0.892857 0.071429
vt 0.892857 0.035714
vt 0.928571 0.035714
vt 0.857143 0.035714
vt 0.857143 0.071429
vt 0.169643 0.000000
vt 0.169643 0.008929
vt 0.125000 0.008929
vt 0.125000 0.000000
vt 0.169643 0.017857
vt 0.125000 0.017857
vt 0.133929 0.017857
vt 0.133929 0.000000
vt 0.160714 0.000000
vt 0.160714 0.017857
vt 1.000000 0.000000
vt 0.946429 0.000000
vt 0.946429 0.071429
vt 1.000000 0.071429
vt 0.982143 0.000000
vt 0.964286 0.000000
vt 0.964286 0.071429
vt 0.982143 0.071429
vt 0.946429 0.017857
vt 1.000000 0.017857
s 1
usemtl m_a04509b2-9e79-7152-ac01-54b87f7e5258.006
f 4/1/1 7/2/1 5/3/1 2/4/1
f 3/5/2 4/6/2 2/7/2 1/8/2
f 8/5/3 3/9/3 1/10/3 6/8/3
f 7/6/4 8/5/4 6/8/4 5/7/4
f 6/8/5 1/11/5 2/12/5 5/7/5
f 7/6/6 4/12/6 3/11/6 8/5/6
f 12/13/1 15/14/1 13/15/1 10/16/1
f 11/17/2 12/15/2 10/14/2 9/18/2
f 16/15/3 11/16/3 9/13/3 14/14/3
f 15/15/4 16/14/4 14/18/4 13/17/4
f 14/15/5 9/16/5 10/13/5 13/14/5
f 15/15/6 12/16/6 11/13/6 16/14/6
f 20/19/1 23/20/1 21/21/1 18/22/1
f 19/23/2 20/19/2 18/22/2 17/24/2
f 24/20/3 19/23/3 17/24/3 22/21/3
f 23/19/4 24/23/4 22/24/4 21/22/4
f 22/25/5 17/24/5 18/22/5 21/26/5
f 23/19/6 20/27/6 19/28/6 24/23/6
f 28/29/4 31/30/4 29/31/4 26/32/4
f 27/33/1 28/34/1 26/35/1 25/36/1
f 32/30/2 27/29/2 25/32/2 30/31/2
f 31/33/3 32/34/3 30/35/3 29/36/3
f 30/37/5 25/38/5 26/29/5 29/30/5
f 31/30/6 28/29/6 27/38/6 32/37/6
