# Blender 4.3.2
# www.blender.org
mtllib left_e_rod.mtl
o cube.001
v -1.375000 0.062500 0.812500
v -1.375000 0.062500 -0.062500
v -1.375000 -0.062500 0.812500
v -1.375000 -0.062500 -0.062500
v -1.437500 0.062500 -0.062500
v -1.437500 0.062500 0.812500
v -1.437500 -0.062500 -0.062500
v -1.437500 -0.062500 0.812500
v -1.375000 0.125000 1.062500
v -1.375000 0.125000 0.812500
v -1.375000 -0.125000 1.062500
v -1.375000 -0.125000 0.812500
v -1.437500 0.125000 0.812500
v -1.437500 0.125000 1.062500
v -1.437500 -0.125000 0.812500
v -1.437500 -0.125000 1.062500
vn -0.0000 -0.0000 -1.0000
vn 1.0000 -0.0000 -0.0000
vn -0.0000 -0.0000 1.0000
vn -1.0000 -0.0000 -0.0000
vn -0.0000 1.0000 -0.0000
vn -0.0000 -1.0000 -0.0000
vt 0.116071 0.500000
vt 0.125000 0.500000
vt 0.125000 0.517857
vt 0.116071 0.517857
vt 0.000000 0.500000
vt 0.000000 0.517857
vt 0.008929 0.500000
vt 0.008929 0.517857
vt 0.125000 0.508929
vt 0.000000 0.508929
vt 0.892857 0.000000
vt 0.883929 0.000000
vt 0.883929 0.035714
vt 0.892857 0.035714
vt 0.857143 0.035714
vt 0.857143 0.000000
vt 0.866071 0.000000
vt 0.857143 0.000000
vt 0.866071 0.035714
vt 0.892857 0.000000
vt 0.857143 0.026786
vt 0.892857 0.026786
vt 0.892857 0.008929
vt 0.857143 0.008929
s 1
usemtl m_a04509b2-9e79-7152-ac01-54b87f7e5258.003
f 4/1/1 7/2/1 5/3/1 2/4/1
f 3/2/2 4/5/2 2/6/2 1/3/2
f 8/5/3 3/7/3 1/8/3 6/6/3
f 7/5/4 8/2/4 6/3/4 5/6/4
f 6/3/5 1/9/5 2/10/5 5/6/5
f 7/10/6 4/5/6 3/2/6 8/9/6
f 12/11/1 15/12/1 13/13/1 10/14/1
f 11/15/2 12/16/2 10/11/2 9/14/2
f 16/17/3 11/18/3 9/15/3 14/19/3
f 15/20/4 16/18/4 14/15/4 13/14/4
f 14/15/5 9/21/5 10/22/5 13/14/5
f 15/23/6 12/11/6 11/16/6 16/24/6
