# Blender 4.3.2
# www.blender.org
mtllib left_c_rod.mtl
o cube.003
v -1.062500 0.187500 -0.687500
v -1.062500 0.187500 -1.062500
v -1.062500 -0.187500 -0.687500
v -1.062500 -0.187500 -1.062500
v -1.187500 0.187500 -1.062500
v -1.187500 0.187500 -0.687500
v -1.187500 -0.187500 -1.062500
v -1.187500 -0.187500 -0.687500
v -1.062500 0.187500 1.062500
v -1.062500 0.187500 0.687500
v -1.062500 -0.187500 1.062500
v -1.062500 -0.187500 0.687500
v -1.187500 0.187500 0.687500
v -1.187500 0.187500 1.062500
v -1.187500 -0.187500 0.687500
v -1.187500 -0.187500 1.062500
v -1.062500 0.125000 0.687500
v -1.062500 0.125000 -0.687500
v -1.062500 -0.125000 0.687500
v -1.062500 -0.125000 -0.687500
v -1.187500 0.125000 -0.687500
v -1.187500 0.125000 0.687500
v -1.187500 -0.125000 -0.687500
v -1.187500 -0.125000 0.687500
v -0.953125 0.125000 -0.750000
v -0.953125 0.125000 -1.000000
v -0.953125 -0.125000 -0.750000
v -0.953125 -0.125000 -1.000000
v -1.203125 0.125000 -1.000000
v -1.203125 0.125000 -0.750000
v -1.203125 -0.125000 -1.000000
v -1.203125 -0.125000 -0.750000
vn -0.0000 -0.0000 -1.0000
vn 1.0000 -0.0000 -0.0000
vn -0.0000 -0.0000 1.0000
vn -1.0000 -0.0000 -0.0000
vn -0.0000 1.0000 -0.0000
vn -0.0000 -1.0000 -0.0000
vt 0.857143 0.062500
vt 0.839286 0.062500
vt 0.839286 0.008929
vt 0.857143 0.008929
vt 0.785714 0.008929
vt 0.785714 0.062500
vt 0.821429 0.410714
vt 0.803571 0.410714
vt 0.803571 0.446429
vt 0.821429 0.446429
vt 1.000000 0.410714
vt 1.000000 0.446429
vt 1.000000 0.392857
vt 1.000000 0.375000
vt 0.803571 0.375000
vt 0.803571 0.392857
vt 0.928571 0.071429
vt 0.892857 0.071429
vt 0.892857 0.035714
vt 0.928571 0.035714
vt 0.857143 0.035714
vt 0.857143 0.071429
s 1
usemtl m_a04509b2-9e79-7152-ac01-54b87f7e5258.002
f 4/1/1 7/2/1 5/3/1 2/4/1
f 3/5/2 4/3/2 2/2/2 1/6/2
f 8/3/3 3/4/3 1/1/3 6/2/3
f 7/3/4 8/2/4 6/6/4 5/5/4
f 6/3/5 1/4/5 2/1/5 5/2/5
f 7/3/6 4/4/6 3/1/6 8/2/6
f 12/1/1 15/2/1 13/3/1 10/4/1
f 11/5/2 12/3/2 10/2/2 9/6/2
f 16/3/3 11/4/3 9/1/3 14/2/3
f 15/3/4 16/2/4 14/6/4 13/5/4
f 14/3/5 9/4/5 10/1/5 13/2/5
f 15/3/6 12/4/6 11/1/6 16/2/6
f 20/7/1 23/8/1 21/9/1 18/10/1
f 19/11/2 20/8/2 18/9/2 17/12/2
f 24/7/3 19/8/3 17/9/3 22/10/3
f 23/11/4 24/8/4 22/9/4 21/12/4
f 22/13/5 17/14/5 18/15/5 21/16/5
f 23/13/6 20/14/6 19/15/6 24/16/6
f 28/17/1 31/18/1 29/19/1 26/20/1
f 27/21/2 28/19/2 26/18/2 25/22/2
f 32/19/3 27/20/3 25/17/3 30/18/3
f 31/19/4 32/18/4 30/22/4 29/21/4
f 30/19/5 25/20/5 26/17/5 29/18/5
f 31/19/6 28/20/6 27/17/6 32/18/6
