# Made in Blockbench 4.12.2
mtllib left_r_bar.mtl

o cube
v -1.375 0.0625 0.1250000000000011
v -1.375 0.0625 -1.125
v -1.375 -0.0625 0.1250000000000011
v -1.375 -0.0625 -1.125
v -1.4375 0.0625 -1.125
v -1.4375 0.0625 0.1250000000000011
v -1.4375 -0.0625 -1.125
v -1.4375 -0.0625 0.1250000000000011
vt 0.017857142857142856 0.6517857142857143
vt 0.008928571428571428 0.6517857142857143
vt 0.008928571428571428 0.6339285714285714
vt 0.017857142857142856 0.6339285714285714
vt 0.17857142857142874 0.6517857142857143
vt 0 0.6517857142857143
vt 0 0.6339285714285714
vt 0.17857142857142874 0.6339285714285714
vt 0.1875 0.6517857142857143
vt 0.17857142857142858 0.6517857142857143
vt 0.17857142857142858 0.6339285714285714
vt 0.1875 0.6339285714285714
vt 0.008928571428571428 0.6517857142857143
vt 0.18750000000000017 0.6517857142857143
vt 0.18750000000000017 0.6339285714285714
vt 0.008928571428571428 0.6339285714285714
vt 0 0.6517857142857143
vt 0 0.6428571428571428
vt 0.17857142857142874 0.6428571428571428
vt 0.17857142857142874 0.6517857142857143
vt 0.17857142857142874 0.6428571428571428
vt 0.17857142857142874 0.6339285714285714
vt 0 0.6339285714285714
vt 0 0.6428571428571428
vn 0 0 -1
vn 1 0 0
vn 0 0 1
vn -1 0 0
vn 0 1 0
vn 0 -1 0
usemtl m_a04509b2-9e79-7152-ac01-54b87f7e5258
f 4/4/1 7/3/1 5/2/1 2/1/1
f 3/8/2 4/7/2 2/6/2 1/5/2
f 8/12/3 3/11/3 1/10/3 6/9/3
f 7/16/4 8/15/4 6/14/4 5/13/4
f 6/20/5 1/19/5 2/18/5 5/17/5
f 7/24/6 4/23/6 3/22/6 8/21/6