# Blender 4.3.2
# www.blender.org
mtllib left_m_rod.mtl
o cube.001
v -1.187500 0.187500 1.750000
v -1.187500 0.187500 1.375000
v -1.187500 -0.187500 1.750000
v -1.187500 -0.187500 1.375000
v -1.312500 0.187500 1.375000
v -1.312500 0.187500 1.750000
v -1.312500 -0.187500 1.375000
v -1.312500 -0.187500 1.750000
v -1.187500 0.125000 1.375000
v -1.187500 0.125000 0.125000
v -1.187500 -0.125000 1.375000
v -1.187500 -0.125000 0.125000
v -1.312500 0.125000 0.125000
v -1.312500 0.125000 1.375000
v -1.312500 -0.125000 0.125000
v -1.312500 -0.125000 1.375000
vn -0.0000 -0.0000 -1.0000
vn 1.0000 -0.0000 -0.0000
vn -0.0000 -0.0000 1.0000
vn -1.0000 -0.0000 -0.0000
vn -0.0000 1.0000 -0.0000
vn -0.0000 -1.0000 -0.0000
vt 0.857143 0.062500
vt 0.839286 0.062500
vt 0.839286 0.008929
vt 0.857143 0.008929
vt 0.785714 0.008929
vt 0.785714 0.062500
vt 0.848214 0.410714
vt 0.830357 0.410714
vt 0.830357 0.446429
vt 0.848214 0.446429
vt 1.000000 0.410714
vt 0.821429 0.410714
vt 0.821429 0.446429
vt 1.000000 0.446429
vt 1.000000 0.428571
vt 0.821429 0.428571
s 1
usemtl m_a04509b2-9e79-7152-ac01-54b87f7e5258.004
f 4/1/1 7/2/1 5/3/1 2/4/1
f 3/5/2 4/3/2 2/2/2 1/6/2
f 8/3/3 3/4/3 1/1/3 6/2/3
f 7/3/4 8/2/4 6/6/4 5/5/4
f 6/3/5 1/4/5 2/1/5 5/2/5
f 7/3/6 4/4/6 3/1/6 8/2/6
f 12/7/1 15/8/1 13/9/1 10/10/1
f 11/11/2 12/12/2 10/13/2 9/14/2
f 16/7/3 11/8/3 9/9/3 14/10/3
f 15/12/4 16/11/4 14/14/4 13/13/4
f 14/14/5 9/15/5 10/16/5 13/13/5
f 15/12/6 12/16/6 11/15/6 16/11/6
