# Blender 4.3.2
# www.blender.org
mtllib right_e_link.mtl
o cube.001
v 1.498438 0.312500 0.062500
v 1.498438 0.312500 -0.062500
v 1.498438 -0.375000 0.062500
v 1.498438 -0.375000 -0.062500
v 1.373438 0.312500 -0.062500
v 1.373438 0.312500 0.062500
v 1.373438 -0.375000 -0.062500
v 1.373438 -0.375000 0.062500
v 1.374375 0.311875 0.061875
v 1.374375 0.311875 -0.061875
v 1.374375 -0.624375 0.061875
v 1.374375 -0.624375 -0.061875
v 1.313125 0.311875 -0.061875
v 1.313125 0.311875 0.061875
v 1.313125 -0.624375 -0.061875
v 1.313125 -0.624375 0.061875
vn -0.0000 -0.0000 -1.0000
vn 1.0000 -0.0000 -0.0000
vn -0.0000 -0.0000 1.0000
vn -1.0000 -0.0000 -0.0000
vn -0.0000 1.0000 -0.0000
vn -0.0000 -1.0000 -0.0000
vt 0.343750 0.656250
vt 0.281250 0.656250
vt 0.281250 1.000000
vt 0.343750 1.000000
vt 0.468750 0.656250
vt 0.531250 0.656250
vt 0.531250 1.000000
vt 0.468750 1.000000
vt 0.312500 0.656250
vt 0.250000 0.656250
vt 0.250000 1.000000
vt 0.312500 1.000000
vt 0.906250 0.062500
vt 0.968750 0.062500
vt 0.968750 0.000000
vt 0.906250 0.000000
vt 0.000000 0.526786
vt 0.000000 0.535714
vt 0.133929 0.535714
vt 0.133929 0.526786
vt 0.000000 0.544643
vt 0.133929 0.544643
vt 0.125000 0.544643
vt 0.125000 0.526786
vt 0.000000 0.553571
vt 0.008929 0.553571
vt 0.008929 0.571429
vt 0.000000 0.571429
s 1
usemtl m_4ab3f651-4f22-0271-1410-0aebf5fe8517.002
f 4/1/1 7/2/1 5/3/1 2/4/1
f 3/5/2 4/6/2 2/7/2 1/8/2
f 8/9/3 3/10/3 1/11/3 6/12/3
f 7/6/4 8/5/4 6/8/4 5/7/4
f 6/13/5 1/14/5 2/15/5 5/16/5
f 7/16/6 4/15/6 3/14/6 8/13/6
usemtl m_a04509b2-9e79-7152-ac01-54b87f7e5258.011
f 12/17/1 15/18/1 13/19/1 10/20/1
f 11/21/2 12/17/2 10/20/2 9/22/2
f 16/18/3 11/21/3 9/22/3 14/19/3
f 15/17/4 16/21/4 14/22/4 13/20/4
f 14/23/5 9/22/5 10/20/5 13/24/5
f 15/25/6 12/26/6 11/27/6 16/28/6
