# Blender 4.3.2
# www.blender.org
mtllib right_e_rod.mtl
o cube.001
v 1.437500 0.125000 1.062500
v 1.437500 0.125000 0.812500
v 1.437500 -0.125000 1.062500
v 1.437500 -0.125000 0.812500
v 1.375000 0.125000 0.812500
v 1.375000 0.125000 1.062500
v 1.375000 -0.125000 0.812500
v 1.375000 -0.125000 1.062500
v 1.437500 0.062500 0.812500
v 1.437500 0.062500 -0.062500
v 1.437500 -0.062500 0.812500
v 1.437500 -0.062500 -0.062500
v 1.375000 0.062500 -0.062500
v 1.375000 0.062500 0.812500
v 1.375000 -0.062500 -0.062500
v 1.375000 -0.062500 0.812500
vn -0.0000 -0.0000 -1.0000
vn 1.0000 -0.0000 -0.0000
vn -0.0000 -0.0000 1.0000
vn -1.0000 -0.0000 -0.0000
vn -0.0000 1.0000 -0.0000
vn -0.0000 -1.0000 -0.0000
vt 0.883929 0.000000
vt 0.892857 0.000000
vt 0.892857 0.035714
vt 0.883929 0.035714
vt 0.857143 0.000000
vt 0.892857 0.000000
vt 0.857143 0.035714
vt 0.866071 0.000000
vt 0.866071 0.035714
vt 0.857143 0.000000
vt 0.857143 0.026786
vt 0.892857 0.026786
vt 0.892857 0.008929
vt 0.857143 0.008929
vt 0.125000 0.500000
vt 0.116071 0.500000
vt 0.116071 0.517857
vt 0.125000 0.517857
vt 0.000000 0.500000
vt 0.000000 0.517857
vt 0.008929 0.500000
vt 0.008929 0.517857
vt 0.125000 0.508929
vt 0.000000 0.508929
s 1
usemtl m_a04509b2-9e79-7152-ac01-54b87f7e5258.012
f 4/1/1 7/2/1 5/3/1 2/4/1
f 3/5/2 4/6/2 2/3/2 1/7/2
f 8/5/3 3/8/3 1/9/3 6/7/3
f 7/10/4 8/7/4 6/3/4 5/2/4
f 6/11/5 1/7/5 2/3/5 5/12/5
f 7/2/6 4/13/6 3/14/6 8/10/6
f 12/15/1 15/16/1 13/17/1 10/18/1
f 11/15/2 12/19/2 10/20/2 9/18/2
f 16/21/3 11/19/3 9/20/3 14/22/3
f 15/19/4 16/15/4 14/18/4 13/20/4
f 14/23/5 9/18/5 10/20/5 13/24/5
f 15/19/6 12/24/6 11/23/6 16/15/6
