# Blender 4.3.2
# www.blender.org
mtllib right_c_rod.mtl
o cube.003
v 1.187500 0.125000 0.687500
v 1.187500 0.125000 -0.687500
v 1.187500 -0.125000 0.687500
v 1.187500 -0.125000 -0.687500
v 1.062500 0.125000 -0.687500
v 1.062500 0.125000 0.687500
v 1.062500 -0.125000 -0.687500
v 1.062500 -0.125000 0.687500
v 1.187500 0.187500 -0.687500
v 1.187500 0.187500 -1.062500
v 1.187500 -0.187500 -0.687500
v 1.187500 -0.187500 -1.062500
v 1.062500 0.187500 -1.062500
v 1.062500 0.187500 -0.687500
v 1.062500 -0.187500 -1.062500
v 1.062500 -0.187500 -0.687500
v 1.203125 0.125000 -0.750000
v 1.203125 0.125000 -1.000000
v 1.203125 -0.125000 -0.750000
v 1.203125 -0.125000 -1.000000
v 0.953125 0.125000 -1.000000
v 0.953125 0.125000 -0.750000
v 0.953125 -0.125000 -1.000000
v 0.953125 -0.125000 -0.750000
v 1.187500 0.187500 1.062500
v 1.187500 0.187500 0.687500
v 1.187500 -0.187500 1.062500
v 1.187500 -0.187500 0.687500
v 1.062500 0.187500 0.687500
v 1.062500 0.187500 1.062500
v 1.062500 -0.187500 0.687500
v 1.062500 -0.187500 1.062500
vn -0.0000 -0.0000 -1.0000
vn 1.0000 -0.0000 -0.0000
vn -0.0000 -0.0000 1.0000
vn -1.0000 -0.0000 -0.0000
vn -0.0000 1.0000 -0.0000
vn -0.0000 -1.0000 -0.0000
vt 0.803571 0.410714
vt 0.821429 0.410714
vt 0.821429 0.446429
vt 0.803571 0.446429
vt 1.000000 0.410714
vt 1.000000 0.446429
vt 1.000000 0.375000
vt 1.000000 0.392857
vt 0.803571 0.392857
vt 0.803571 0.375000
vt 0.839286 0.062500
vt 0.857143 0.062500
vt 0.857143 0.008929
vt 0.839286 0.008929
vt 0.785714 0.008929
vt 0.785714 0.062500
vt 0.892857 0.071429
vt 0.928571 0.071429
vt 0.928571 0.035714
vt 0.892857 0.035714
vt 0.857143 0.035714
vt 0.857143 0.071429
s 1
usemtl m_a04509b2-9e79-7152-ac01-54b87f7e5258.010
f 4/1/1 7/2/1 5/3/1 2/4/1
f 3/1/2 4/5/2 2/6/2 1/4/2
f 8/1/3 3/2/3 1/3/3 6/4/3
f 7/1/4 8/5/4 6/6/4 5/4/4
f 6/7/5 1/8/5 2/9/5 5/10/5
f 7/7/6 4/8/6 3/9/6 8/10/6
f 12/11/1 15/12/1 13/13/1 10/14/1
f 11/11/2 12/14/2 10/15/2 9/16/2
f 16/13/3 11/14/3 9/11/3 14/12/3
f 15/14/4 16/15/4 14/16/4 13/11/4
f 14/13/5 9/14/5 10/11/5 13/12/5
f 15/13/6 12/14/6 11/11/6 16/12/6
f 20/17/1 23/18/1 21/19/1 18/20/1
f 19/17/2 20/20/2 18/21/2 17/22/2
f 24/19/3 19/20/3 17/17/3 22/18/3
f 23/20/4 24/21/4 22/22/4 21/17/4
f 22/19/5 17/20/5 18/17/5 21/18/5
f 23/19/6 20/20/6 19/17/6 24/18/6
f 28/11/1 31/12/1 29/13/1 26/14/1
f 27/11/2 28/14/2 26/15/2 25/16/2
f 32/13/3 27/14/3 25/11/3 30/12/3
f 31/14/4 32/15/4 30/16/4 29/11/4
f 30/13/5 25/14/5 26/11/5 29/12/5
f 31/13/6 28/14/6 27/11/6 32/12/6
