# Blender 4.3.2
# www.blender.org
mtllib right_m_rod.mtl
o cube.001
v 1.312500 0.125000 1.375000
v 1.312500 0.125000 0.125000
v 1.312500 -0.125000 1.375000
v 1.312500 -0.125000 0.125000
v 1.187500 0.125000 0.125000
v 1.187500 0.125000 1.375000
v 1.187500 -0.125000 0.125000
v 1.187500 -0.125000 1.375000
v 1.312500 0.187500 1.750000
v 1.312500 0.187500 1.375000
v 1.312500 -0.187500 1.750000
v 1.312500 -0.187500 1.375000
v 1.187500 0.187500 1.375000
v 1.187500 0.187500 1.750000
v 1.187500 -0.187500 1.375000
v 1.187500 -0.187500 1.750000
vn -0.0000 -0.0000 -1.0000
vn 1.0000 -0.0000 -0.0000
vn -0.0000 -0.0000 1.0000
vn -1.0000 -0.0000 -0.0000
vn -0.0000 1.0000 -0.0000
vn -0.0000 -1.0000 -0.0000
vt 0.830357 0.410714
vt 0.848214 0.410714
vt 0.848214 0.446429
vt 0.830357 0.446429
vt 1.000000 0.410714
vt 0.821429 0.410714
vt 0.821429 0.446429
vt 1.000000 0.446429
vt 1.000000 0.428571
vt 0.821429 0.428571
vt 0.839286 0.062500
vt 0.857143 0.062500
vt 0.857143 0.008929
vt 0.839286 0.008929
vt 0.785714 0.008929
vt 0.785714 0.062500
s 1
usemtl m_a04509b2-9e79-7152-ac01-54b87f7e5258.013
f 4/1/1 7/2/1 5/3/1 2/4/1
f 3/5/2 4/6/2 2/7/2 1/8/2
f 8/1/3 3/2/3 1/3/3 6/4/3
f 7/6/4 8/5/4 6/8/4 5/7/4
f 6/9/5 1/8/5 2/7/5 5/10/5
f 7/10/6 4/6/6 3/5/6 8/9/6
f 12/11/1 15/12/1 13/13/1 10/14/1
f 11/11/2 12/14/2 10/15/2 9/16/2
f 16/13/3 11/14/3 9/11/3 14/12/3
f 15/14/4 16/15/4 14/16/4 13/11/4
f 14/13/5 9/14/5 10/11/5 13/12/5
f 15/13/6 12/14/6 11/11/6 16/12/6
