# Made in Blockbench 4.12.2
mtllib right_v_stem.mtl

o cube
v 1.3125 1.5 -0.9843749999999967
v 1.3125 1.5 -1.6093749999999967
v 1.3125 1.375 -0.9843749999999967
v 1.3125 1.375 -1.6093749999999967
v 1.1875 1.5 -1.6093749999999967
v 1.1875 1.5 -0.9843749999999967
v 1.1875 1.375 -1.6093749999999967
v 1.1875 1.375 -0.9843749999999967
vt 0.08928571428571427 0.4107142857142857
vt 0.07142857142857142 0.4107142857142857
vt 0.07142857142857142 0.3928571428571429
vt 0.08928571428571427 0.3928571428571429
vt 0.08928571428571427 0.4107142857142857
vt 0 0.4107142857142857
vt 0 0.3928571428571429
vt 0.08928571428571427 0.3928571428571429
vt 0.07142857142857142 0.4107142857142857
vt 0.08928571428571427 0.4107142857142857
vt 0.08928571428571427 0.3928571428571429
vt 0.07142857142857142 0.3928571428571429
vt 0 0.3928571428571429
vt 0.08928571428571427 0.3928571428571429
vt 0.08928571428571427 0.4107142857142857
vt 0 0.4107142857142857
vt 0 0.3928571428571429
vt 0 0.4107142857142857
vt 0.08928571428571427 0.4107142857142857
vt 0.08928571428571427 0.3928571428571429
vt 0.08928571428571427 0.4107142857142857
vt 0.08928571428571427 0.3928571428571429
vt 0 0.3928571428571429
vt 0 0.4107142857142857
vn 0 0 -1
vn 1 0 0
vn 0 0 1
vn -1 0 0
vn 0 1 0
vn 0 -1 0
usemtl m_a04509b2-9e79-7152-ac01-54b87f7e5258
f 4/4/1 7/3/1 5/2/1 2/1/1
f 3/8/2 4/7/2 2/6/2 1/5/2
f 8/12/3 3/11/3 1/10/3 6/9/3
f 7/16/4 8/15/4 6/14/4 5/13/4
f 6/20/5 1/19/5 2/18/5 5/17/5
f 7/24/6 4/23/6 3/22/6 8/21/6