# Blender 4.3.2
# www.blender.org
mtllib right_p_rod.mtl
o Rod
v 1.312500 1.125000 -0.842188
v 1.312500 1.125000 -1.717188
v 1.312500 0.875000 -0.842188
v 1.312500 0.875000 -1.717188
v 1.187500 1.125000 -1.717188
v 1.187500 1.125000 -0.842188
v 1.187500 0.875000 -1.717188
v 1.187500 0.875000 -0.842188
v 1.171875 1.265625 -0.465625
v 1.328125 1.265625 -0.465625
v 1.171875 0.734375 -0.465625
v 1.328125 0.734375 -0.465625
v 1.328125 1.265625 -0.871875
v 1.171875 1.265625 -0.871875
v 1.328125 0.734375 -0.871875
v 1.171875 0.734375 -0.871875
v 1.375000 1.125000 -0.543750
v 1.375000 1.125000 -0.793750
v 1.375000 0.875000 -0.543750
v 1.375000 0.875000 -0.793750
v 1.125000 1.125000 -0.793750
v 1.125000 1.125000 -0.543750
v 1.125000 0.875000 -0.793750
v 1.125000 0.875000 -0.543750
v 1.375000 0.875000 -0.606250
v 1.375000 0.875000 -0.731250
v 1.375000 0.562500 -0.606250
v 1.375000 0.562500 -0.731250
v 1.312500 0.875000 -0.731250
v 1.312500 0.875000 -0.606250
v 1.312500 0.562500 -0.731250
v 1.312500 0.562500 -0.606250
vn -0.0000 -0.0000 -1.0000
vn 1.0000 -0.0000 -0.0000
vn -0.0000 -0.0000 1.0000
vn -1.0000 -0.0000 -0.0000
vn -0.0000 1.0000 -0.0000
vn -0.0000 -1.0000 -0.0000
vt 0.973214 0.223214
vt 0.955357 0.223214
vt 0.955357 0.258929
vt 0.973214 0.258929
vt 0.857143 0.223214
vt 0.982143 0.223214
vt 0.982143 0.258929
vt 0.857143 0.258929
vt 0.875000 0.223214
vt 0.875000 0.258929
vt 0.857143 0.241071
vt 0.982143 0.241071
vt 0.946429 0.000000
vt 1.000000 0.000000
vt 1.000000 0.071429
vt 0.946429 0.071429
vt 0.964286 0.000000
vt 0.982143 0.000000
vt 0.982143 0.071429
vt 0.964286 0.071429
vt 1.000000 0.017857
vt 0.946429 0.017857
vt 0.892857 0.071429
vt 0.928571 0.071429
vt 0.928571 0.035714
vt 0.892857 0.035714
vt 0.857143 0.035714
vt 0.857143 0.071429
vt 0.169643 0.008929
vt 0.169643 0.000000
vt 0.125000 0.000000
vt 0.125000 0.008929
vt 0.169643 0.017857
vt 0.125000 0.017857
vt 0.133929 0.017857
vt 0.133929 0.000000
vt 0.160714 0.000000
vt 0.160714 0.017857
s 1
usemtl m_a04509b2-9e79-7152-ac01-54b87f7e5258.014
f 4/1/1 7/2/1 5/3/1 2/4/1
f 3/5/2 4/6/2 2/7/2 1/8/2
f 8/9/3 3/5/3 1/8/3 6/10/3
f 7/6/4 8/5/4 6/8/4 5/7/4
f 6/11/5 1/8/5 2/7/5 5/12/5
f 7/12/6 4/6/6 3/5/6 8/11/6
f 12/13/2 15/14/2 13/15/2 10/16/2
f 11/17/3 12/18/3 10/19/3 9/20/3
f 16/14/4 11/13/4 9/16/4 14/15/4
f 15/17/1 16/18/1 14/19/1 13/20/1
f 14/21/5 9/22/5 10/13/5 13/14/5
f 15/14/6 12/13/6 11/22/6 16/21/6
f 20/23/1 23/24/1 21/25/1 18/26/1
f 19/23/2 20/26/2 18/27/2 17/28/2
f 24/25/3 19/26/3 17/23/3 22/24/3
f 23/26/4 24/27/4 22/28/4 21/23/4
f 22/25/5 17/26/5 18/23/5 21/24/5
f 23/25/6 20/26/6 19/23/6 24/24/6
f 28/29/1 31/30/1 29/31/1 26/32/1
f 27/33/2 28/30/2 26/31/2 25/34/2
f 32/33/3 27/29/3 25/32/3 30/34/3
f 31/30/4 32/33/4 30/34/4 29/31/4
f 30/34/5 25/35/5 26/36/5 29/31/5
f 31/37/6 28/30/6 27/33/6 32/38/6
