# Blender 4.3.2
# www.blender.org
mtllib wheel_outer.mtl
o Cube.038_Cube.048
v -0.875694 0.000000 0.625000
v -1.063194 -0.258883 0.625000
v -0.875694 -0.258884 0.625000
v -0.875694 0.000000 0.750000
v -0.750694 -0.310660 0.750000
v -0.750694 0.000000 0.750000
v -0.875694 -0.310660 0.750000
v -0.750694 -0.000000 0.000000
v -0.875694 0.258883 0.625000
v -1.063194 0.000000 0.625000
v -0.875694 0.310660 0.750000
v -0.750694 0.310660 0.750000
v -1.063194 -0.441942 0.441942
v -0.875694 -0.625000 0.258883
v -0.875694 -0.441942 0.441942
v -0.875694 -0.750000 0.310660
v -0.750694 -0.530330 0.530330
v -0.875694 -0.530330 0.530330
v -0.750694 -0.750000 0.310660
v -1.063194 -0.625000 0.000000
v -0.875694 -0.625000 -0.258884
v -0.875694 -0.625000 0.000000
v -0.875694 -0.750000 -0.310660
v -0.750694 -0.750000 0.000000
v -0.875694 -0.750000 0.000000
v -0.750694 -0.750000 -0.310660
v -1.063194 -0.441942 -0.441942
v -0.875694 -0.258884 -0.625000
v -0.875694 -0.441942 -0.441942
v -0.875694 -0.310660 -0.750000
v -0.750694 -0.530330 -0.530330
v -0.875694 -0.530330 -0.530330
v -0.750694 -0.310660 -0.750000
v -1.063194 -0.000000 -0.625000
v -0.875694 0.258883 -0.625000
v -0.875694 -0.000000 -0.625000
v -0.875694 0.310660 -0.750000
v -0.750694 -0.000000 -0.750000
v -0.875694 -0.000000 -0.750000
v -0.750694 0.310660 -0.750000
v -1.063194 0.441942 -0.441942
v -0.875694 0.625000 -0.258884
v -0.875694 0.441942 -0.441942
v -0.875694 0.750000 -0.310660
v -0.750694 0.530330 -0.530330
v -0.875694 0.530330 -0.530330
v -0.750694 0.750000 -0.310660
v -1.063194 0.625000 0.000000
v -0.875694 0.625000 0.258883
v -0.875694 0.625000 0.000000
v -0.875694 0.750000 0.310660
v -0.750694 0.750000 0.000000
v -0.875694 0.750000 0.000000
v -0.750694 0.750000 0.310660
v -1.063194 -0.232995 -0.232995
v -1.063194 -0.232995 -0.562500
v -1.063194 -0.397748 -0.397748
v -1.063194 0.441942 0.441942
v -0.875694 0.441942 0.441942
v -0.875694 0.530330 0.530330
v -0.750694 0.530330 0.530330
v -1.063194 -0.562500 0.232995
v -1.063194 -0.397748 0.397747
v -1.063194 -0.232995 0.562500
v -1.063194 -0.562500 -0.232995
v -1.063194 -0.562500 0.000000
v -1.063194 0.232995 -0.562500
v -1.063194 -0.000000 -0.562500
v -1.063194 -0.258884 -0.625000
v -1.063194 0.562500 -0.232995
v -1.063194 0.397748 -0.397748
v -1.063194 0.232995 0.562500
v -1.063194 0.397748 0.397747
v -1.063194 0.562500 0.232995
v -1.063194 0.625000 0.258883
v -1.063194 0.000000 0.562500
v -1.063194 0.258883 0.625000
v -1.063194 -0.625000 0.258883
v -1.063194 -0.625000 -0.258884
v -1.063194 0.258883 -0.625000
v -1.063194 0.562500 0.000000
v -1.063194 0.625000 -0.258884
v -1.063194 0.232995 -0.232995
v -1.063194 -0.000000 -0.232995
v -1.063194 -0.232995 0.000000
v -1.063194 -0.000000 0.000000
v -1.063194 0.232995 0.000000
v -1.063194 -0.232995 0.232995
v -1.063194 -0.000000 0.232995
v -1.063194 0.232995 0.232995
v 0.875694 -0.625000 0.000000
v 1.063194 -0.625000 -0.258883
v 0.875694 -0.625000 -0.258884
v 0.875694 -0.750000 0.000000
v 0.750694 -0.750000 -0.310660
v 0.750694 -0.750000 0.000000
v 0.875694 -0.750000 -0.310660
v 0.750694 -0.000000 0.000000
v 0.875694 -0.625000 0.258883
v 1.063194 -0.625000 0.000000
v 0.875694 -0.750000 0.310660
v 0.750694 -0.750000 0.310660
v 1.063194 -0.441942 -0.441942
v 0.875694 -0.258883 -0.625000
v 0.875694 -0.441942 -0.441942
v 0.875694 -0.310660 -0.750000
v 0.750694 -0.530330 -0.530330
v 0.875694 -0.530330 -0.530330
v 0.750694 -0.310660 -0.750000
v 1.063194 -0.000000 -0.625000
v 0.875694 0.258884 -0.625000
v 0.875694 -0.000000 -0.625000
v 0.875694 0.310660 -0.750000
v 0.750694 -0.000000 -0.750000
v 0.875694 -0.000000 -0.750000
v 0.750694 0.310660 -0.750000
v 1.063194 0.441942 -0.441942
v 0.875694 0.625000 -0.258884
v 0.875694 0.441942 -0.441942
v 0.875694 0.750000 -0.310660
v 0.750694 0.530330 -0.530330
v 0.875694 0.530330 -0.530330
v 0.750694 0.750000 -0.310660
v 1.063194 0.625000 0.000000
v 0.875694 0.625000 0.258883
v 0.875694 0.625000 0.000000
v 0.875694 0.750000 0.310660
v 0.750694 0.750000 0.000000
v 0.875694 0.750000 0.000000
v 0.750694 0.750000 0.310660
v 1.063194 0.441942 0.441942
v 0.875694 0.258884 0.625000
v 0.875694 0.441942 0.441942
v 0.875694 0.310660 0.750000
v 0.750694 0.530330 0.530330
v 0.875694 0.530330 0.530330
v 0.750694 0.310660 0.750000
v 1.063194 -0.000000 0.625000
v 0.875694 -0.258883 0.625000
v 0.875694 -0.000000 0.625000
v 0.875694 -0.310660 0.750000
v 0.750694 -0.000000 0.750000
v 0.875694 -0.000000 0.750000
v 0.750694 -0.310660 0.750000
v 1.063194 0.232995 -0.232995
v 1.063194 0.562500 -0.232995
v 1.063194 0.397748 -0.397748
v 1.063194 -0.441942 0.441942
v 0.875694 -0.441942 0.441942
v 0.875694 -0.530330 0.530330
v 0.750694 -0.530330 0.530330
v 1.063194 -0.232995 -0.562500
v 1.063194 -0.397747 -0.397748
v 1.063194 -0.562500 -0.232995
v 1.063194 0.232995 -0.562500
v 1.063194 -0.000000 -0.562500
v 1.063194 0.562500 0.232995
v 1.063194 0.562500 0.000000
v 1.063194 0.625000 -0.258884
v 1.063194 0.232995 0.562500
v 1.063194 0.397748 0.397748
v 1.063194 -0.562500 0.232995
v 1.063194 -0.397747 0.397748
v 1.063194 -0.232995 0.562500
v 1.063194 -0.258883 0.625000
v 1.063194 -0.562500 0.000000
v 1.063194 -0.625000 0.258883
v 1.063194 -0.258883 -0.625000
v 1.063194 0.258884 -0.625000
v 1.063194 0.625000 0.258883
v 1.063194 -0.000000 0.562500
v 1.063194 0.258884 0.625000
v 1.063194 0.232995 0.232995
v 1.063194 0.232995 0.000000
v 1.063194 -0.000000 -0.232995
v 1.063194 -0.000000 0.000000
v 1.063194 -0.000000 0.232995
v 1.063194 -0.232995 -0.232995
v 1.063194 -0.232995 0.000000
v 1.063194 -0.232995 0.232995
vn -0.0000 -0.0000 1.0000
vn -1.0000 -0.0000 -0.0000
vn 1.0000 -0.0000 -0.0000
vn -0.0000 -0.7071 0.7071
vn -0.0000 -1.0000 -0.0000
vn -0.0000 -0.7071 -0.7071
vn -0.0000 -0.0000 -1.0000
vn -0.0000 0.7071 -0.7071
vn -0.0000 1.0000 -0.0000
vn -0.0000 0.7071 0.7071
vt 0.812500 0.937500
vt 0.683058 0.843750
vt 0.683058 0.937500
vt 0.656250 1.000000
vt 0.812500 1.000000
vt 0.812500 0.843750
vt 0.683058 0.781250
vt 0.657170 0.843750
vt 0.812500 0.468750
vt 0.941942 0.937500
vt 0.967830 0.937500
vt 0.941942 0.781250
vt 0.812500 0.781250
vt 0.967830 0.843750
vt 0.657170 0.937500
vt 0.199370 0.571111
vt 0.199370 0.406511
vt 0.115555 0.490555
vt 0.699369 0.905987
vt 0.812500 0.937499
vt 0.812500 0.906151
vt 0.925632 0.905988
vt 0.937500 0.937500
vt 0.699370 0.905989
vt 0.925630 0.905989
vt 0.925632 0.905987
vt 0.425630 0.571111
vt 0.593489 0.574370
vt 0.509445 0.490555
vt 0.425630 0.406511
vt 0.312500 0.571043
vt 0.312500 0.406349
vt 0.199370 0.687500
vt 0.312500 0.687500
vt 0.425630 0.687500
vt 0.593651 0.687500
vt 0.031511 0.574370
vt 0.031349 0.687500
vt 0.199370 0.803889
vt 0.312500 0.803956
vt 0.425630 0.803889
vt 0.593489 0.800630
vt 0.031511 0.800630
vt 0.199370 0.968489
vt 0.312500 0.968651
vt 0.425630 0.968489
vt 0.509445 0.884445
vt 0.115555 0.884445
vt 0.941942 0.843750
vt 0.968750 1.000000
vt 0.687500 0.937498
vt 0.687500 0.937500
s 1
usemtl m_d9d69c3a-5ba3-3bbe-30c9-f864775ef81e.002
f 1/1/1 2/2/1 3/3/1
f 4/1/1 5/4/1 6/5/1
f 4/6/2 3/7/2 7/8/2
f 8/9/3 6/6/3 5/8/3
f 9/10/1 10/6/1 1/1/1
f 6/5/1 11/11/1 4/1/1
f 4/6/2 9/12/2 1/13/2
f 8/9/3 12/14/3 6/6/3
f 13/6/4 14/3/4 15/1/4
f 16/15/4 17/5/4 18/1/4
f 18/6/2 14/7/2 16/8/2
f 8/9/3 17/6/3 19/8/3
f 3/10/4 13/6/4 15/1/4
f 17/5/4 7/11/4 18/1/4
f 18/6/2 3/12/2 15/13/2
f 8/9/3 5/14/3 17/6/3
f 20/6/5 21/3/5 22/1/5
f 23/15/5 24/5/5 25/1/5
f 25/6/2 21/7/2 23/8/2
f 8/9/3 24/6/3 26/8/3
f 14/10/5 20/6/5 22/1/5
f 24/5/5 16/11/5 25/1/5
f 25/6/2 14/12/2 22/13/2
f 8/9/3 19/14/3 24/6/3
f 27/6/6 28/3/6 29/1/6
f 30/15/6 31/5/6 32/1/6
f 32/6/2 28/7/2 30/8/2
f 8/9/3 31/6/3 33/8/3
f 21/10/6 27/6/6 29/1/6
f 31/5/6 23/11/6 32/1/6
f 32/6/2 21/12/2 29/13/2
f 8/9/3 26/14/3 31/6/3
f 34/6/7 35/3/7 36/1/7
f 37/15/7 38/5/7 39/1/7
f 39/6/2 35/7/2 37/8/2
f 8/9/3 38/6/3 40/8/3
f 28/10/7 34/6/7 36/1/7
f 38/5/7 30/11/7 39/1/7
f 39/6/2 28/12/2 36/13/2
f 8/9/3 33/14/3 38/6/3
f 41/6/8 42/3/8 43/1/8
f 44/15/8 45/5/8 46/1/8
f 46/6/2 42/7/2 44/8/2
f 8/9/3 45/6/3 47/8/3
f 35/10/8 41/6/8 43/1/8
f 45/5/8 37/11/8 46/1/8
f 46/6/2 35/12/2 43/13/2
f 8/9/3 40/14/3 45/6/3
f 48/6/9 49/3/9 50/1/9
f 51/15/9 52/5/9 53/1/9
f 53/6/2 49/7/2 51/8/2
f 8/9/3 52/6/3 54/8/3
f 55/16/2 56/17/2 57/18/2
f 42/10/9 48/6/9 50/1/9
f 52/5/9 44/11/9 53/1/9
f 53/6/2 42/12/2 50/13/2
f 8/9/3 47/14/3 52/6/3
f 58/6/10 9/3/10 59/1/10
f 60/1/10 12/4/10 61/5/10
f 60/6/2 9/7/2 11/8/2
f 8/9/3 61/6/3 12/8/3
f 49/10/10 58/6/10 59/1/10
f 61/5/10 51/11/10 60/1/10
f 60/6/2 49/12/2 59/13/2
f 8/9/3 54/14/3 61/6/3
f 62/19/2 13/20/2 63/21/2
f 64/22/2 13/20/2 2/23/2
f 65/24/2 20/1/2 66/21/2
f 67/24/2 34/1/2 68/21/2
f 56/25/2 34/1/2 69/23/2
f 70/19/2 41/20/2 71/21/2
f 72/19/2 58/20/2 73/21/2
f 74/22/2 58/20/2 75/23/2
f 64/24/2 10/1/2 76/21/2
f 72/25/2 10/1/2 77/23/2
f 62/25/2 20/1/2 78/23/2
f 56/19/2 27/20/2 57/21/2
f 65/26/2 27/20/2 79/23/2
f 67/26/2 41/20/2 80/23/2
f 74/24/2 48/1/2 81/21/2
f 70/25/2 48/1/2 82/23/2
f 83/27/2 70/28/2 71/29/2
f 67/30/2 84/31/2 83/27/2
f 68/32/2 55/16/2 84/31/2
f 84/31/2 85/33/2 86/34/2
f 83/27/2 86/34/2 87/35/2
f 81/36/2 83/27/2 87/35/2
f 85/33/2 65/37/2 66/38/2
f 86/34/2 88/39/2 89/40/2
f 87/35/2 89/40/2 90/41/2
f 81/36/2 90/41/2 74/42/2
f 85/33/2 62/43/2 88/39/2
f 89/40/2 64/44/2 76/45/2
f 90/41/2 76/45/2 72/46/2
f 73/47/2 74/42/2 90/41/2
f 88/39/2 62/43/2 63/48/2
f 67/30/2 83/27/2 71/29/2
f 65/37/2 55/16/2 57/18/2
f 64/44/2 88/39/2 63/48/2
f 72/46/2 73/47/2 90/41/2
f 1/1/1 10/6/1 2/2/1
f 4/1/1 7/15/1 5/4/1
f 4/6/2 1/13/2 3/7/2
f 9/10/1 77/49/1 10/6/1
f 6/5/1 12/50/1 11/11/1
f 4/6/2 11/14/2 9/12/2
f 13/6/4 78/2/4 14/3/4
f 16/15/4 19/4/4 17/5/4
f 18/6/2 15/13/2 14/7/2
f 3/10/4 2/49/4 13/6/4
f 17/5/4 5/50/4 7/11/4
f 18/6/2 7/14/2 3/12/2
f 20/6/5 79/2/5 21/3/5
f 23/15/5 26/4/5 24/5/5
f 25/6/2 22/13/2 21/7/2
f 14/10/5 78/49/5 20/6/5
f 24/5/5 19/50/5 16/11/5
f 25/6/2 16/14/2 14/12/2
f 27/6/6 69/2/6 28/3/6
f 30/15/6 33/4/6 31/5/6
f 32/6/2 29/13/2 28/7/2
f 21/10/6 79/49/6 27/6/6
f 31/5/6 26/50/6 23/11/6
f 32/6/2 23/14/2 21/12/2
f 34/6/7 80/2/7 35/3/7
f 37/15/7 40/4/7 38/5/7
f 39/6/2 36/13/2 35/7/2
f 28/10/7 69/49/7 34/6/7
f 38/5/7 33/50/7 30/11/7
f 39/6/2 30/14/2 28/12/2
f 41/6/8 82/2/8 42/3/8
f 44/15/8 47/4/8 45/5/8
f 46/6/2 43/13/2 42/7/2
f 35/10/8 80/49/8 41/6/8
f 45/5/8 40/50/8 37/11/8
f 46/6/2 37/14/2 35/12/2
f 48/6/9 75/2/9 49/3/9
f 51/15/9 54/4/9 52/5/9
f 53/6/2 50/13/2 49/7/2
f 42/10/9 82/49/9 48/6/9
f 52/5/9 47/50/9 44/11/9
f 53/6/2 44/14/2 42/12/2
f 58/6/10 77/2/10 9/3/10
f 60/1/10 11/15/10 12/4/10
f 60/6/2 59/13/2 9/7/2
f 49/10/10 75/49/10 58/6/10
f 61/5/10 54/50/10 51/11/10
f 60/6/2 51/14/2 49/12/2
f 62/19/2 78/51/2 13/20/2
f 64/22/2 63/21/2 13/20/2
f 65/24/2 79/52/2 20/1/2
f 67/24/2 80/52/2 34/1/2
f 56/25/2 68/21/2 34/1/2
f 70/19/2 82/51/2 41/20/2
f 72/19/2 77/51/2 58/20/2
f 74/22/2 73/21/2 58/20/2
f 64/24/2 2/52/2 10/1/2
f 72/25/2 76/21/2 10/1/2
f 62/25/2 66/21/2 20/1/2
f 56/19/2 69/51/2 27/20/2
f 65/26/2 57/21/2 27/20/2
f 67/26/2 71/21/2 41/20/2
f 74/24/2 75/52/2 48/1/2
f 70/25/2 81/21/2 48/1/2
f 67/30/2 68/32/2 84/31/2
f 68/32/2 56/17/2 55/16/2
f 84/31/2 55/16/2 85/33/2
f 83/27/2 84/31/2 86/34/2
f 81/36/2 70/28/2 83/27/2
f 85/33/2 55/16/2 65/37/2
f 86/34/2 85/33/2 88/39/2
f 87/35/2 86/34/2 89/40/2
f 81/36/2 87/35/2 90/41/2
f 85/33/2 66/38/2 62/43/2
f 89/40/2 88/39/2 64/44/2
f 90/41/2 89/40/2 76/45/2
f 92/2/5 91/1/5 93/3/5
f 95/4/5 94/1/5 96/5/5
f 93/7/3 94/6/3 97/8/3
f 96/6/2 98/9/2 95/8/2
f 100/6/5 99/10/5 91/1/5
f 101/11/5 96/5/5 94/1/5
f 99/12/3 94/6/3 91/13/3
f 102/14/2 98/9/2 96/6/2
f 104/3/6 103/6/6 105/1/6
f 107/5/6 106/15/6 108/1/6
f 104/7/3 108/6/3 106/8/3
f 107/6/2 98/9/2 109/8/2
f 103/6/6 93/10/6 105/1/6
f 97/11/6 107/5/6 108/1/6
f 93/12/3 108/6/3 105/13/3
f 95/14/2 98/9/2 107/6/2
f 111/3/7 110/6/7 112/1/7
f 114/5/7 113/15/7 115/1/7
f 111/7/3 115/6/3 113/8/3
f 114/6/2 98/9/2 116/8/2
f 110/6/7 104/10/7 112/1/7
f 106/11/7 114/5/7 115/1/7
f 104/12/3 115/6/3 112/13/3
f 109/14/2 98/9/2 114/6/2
f 118/3/8 117/6/8 119/1/8
f 121/5/8 120/15/8 122/1/8
f 118/7/3 122/6/3 120/8/3
f 121/6/2 98/9/2 123/8/2
f 117/6/8 111/10/8 119/1/8
f 113/11/8 121/5/8 122/1/8
f 111/12/3 122/6/3 119/13/3
f 116/14/2 98/9/2 121/6/2
f 125/3/9 124/6/9 126/1/9
f 128/5/9 127/15/9 129/1/9
f 125/7/3 129/6/3 127/8/3
f 128/6/2 98/9/2 130/8/2
f 124/6/9 118/10/9 126/1/9
f 120/11/9 128/5/9 129/1/9
f 118/12/3 129/6/3 126/13/3
f 123/14/2 98/9/2 128/6/2
f 132/3/10 131/6/10 133/1/10
f 135/5/10 134/15/10 136/1/10
f 132/7/3 136/6/3 134/8/3
f 135/6/2 98/9/2 137/8/2
f 131/6/10 125/10/10 133/1/10
f 127/11/10 135/5/10 136/1/10
f 125/12/3 136/6/3 133/13/3
f 130/14/2 98/9/2 135/6/2
f 139/3/1 138/6/1 140/1/1
f 142/5/1 141/15/1 143/1/1
f 139/7/3 143/6/3 141/8/3
f 142/6/2 98/9/2 144/8/2
f 146/17/3 145/16/3 147/18/3
f 138/6/1 132/10/1 140/1/1
f 134/11/1 142/5/1 143/1/1
f 132/12/3 143/6/3 140/13/3
f 137/14/2 98/9/2 142/6/2
f 99/3/4 148/6/4 149/1/4
f 102/4/4 150/1/4 151/5/4
f 99/7/3 150/6/3 101/8/3
f 151/6/2 98/9/2 102/8/2
f 148/6/4 139/10/4 149/1/4
f 141/11/4 151/5/4 150/1/4
f 139/12/3 150/6/3 149/13/3
f 144/14/2 98/9/2 151/6/2
f 103/20/3 152/19/3 153/21/3
f 103/20/3 154/22/3 92/23/3
f 110/1/3 155/24/3 156/21/3
f 124/1/3 157/24/3 158/21/3
f 124/1/3 146/25/3 159/23/3
f 131/20/3 160/19/3 161/21/3
f 148/20/3 162/19/3 163/21/3
f 148/20/3 164/22/3 165/23/3
f 100/1/3 154/24/3 166/21/3
f 100/1/3 162/25/3 167/23/3
f 110/1/3 152/25/3 168/23/3
f 117/20/3 146/19/3 147/21/3
f 117/20/3 155/26/3 169/23/3
f 131/20/3 157/26/3 170/23/3
f 138/1/3 164/24/3 171/21/3
f 138/1/3 160/25/3 172/23/3
f 160/28/3 173/27/3 161/29/3
f 174/31/3 157/30/3 173/27/3
f 145/16/3 158/32/3 174/31/3
f 175/33/3 174/31/3 176/34/3
f 176/34/3 173/27/3 177/35/3
f 173/27/3 171/36/3 177/35/3
f 155/37/3 175/33/3 156/38/3
f 178/39/3 176/34/3 179/40/3
f 179/40/3 177/35/3 180/41/3
f 180/41/3 171/36/3 164/42/3
f 152/43/3 175/33/3 178/39/3
f 154/44/3 179/40/3 166/45/3
f 166/45/3 180/41/3 162/46/3
f 164/42/3 163/47/3 180/41/3
f 152/43/3 178/39/3 153/48/3
f 173/27/3 157/30/3 161/29/3
f 145/16/3 155/37/3 147/18/3
f 178/39/3 154/44/3 153/48/3
f 163/47/3 162/46/3 180/41/3
f 100/6/5 91/1/5 92/2/5
f 97/15/5 94/1/5 95/4/5
f 91/13/3 94/6/3 93/7/3
f 167/49/5 99/10/5 100/6/5
f 102/50/5 96/5/5 101/11/5
f 101/14/3 94/6/3 99/12/3
f 168/2/6 103/6/6 104/3/6
f 109/4/6 106/15/6 107/5/6
f 105/13/3 108/6/3 104/7/3
f 92/49/6 93/10/6 103/6/6
f 95/50/6 107/5/6 97/11/6
f 97/14/3 108/6/3 93/12/3
f 169/2/7 110/6/7 111/3/7
f 116/4/7 113/15/7 114/5/7
f 112/13/3 115/6/3 111/7/3
f 168/49/7 104/10/7 110/6/7
f 109/50/7 114/5/7 106/11/7
f 106/14/3 115/6/3 104/12/3
f 159/2/8 117/6/8 118/3/8
f 123/4/8 120/15/8 121/5/8
f 119/13/3 122/6/3 118/7/3
f 169/49/8 111/10/8 117/6/8
f 116/50/8 121/5/8 113/11/8
f 113/14/3 122/6/3 111/12/3
f 170/2/9 124/6/9 125/3/9
f 130/4/9 127/15/9 128/5/9
f 126/13/3 129/6/3 125/7/3
f 159/49/9 118/10/9 124/6/9
f 123/50/9 128/5/9 120/11/9
f 120/14/3 129/6/3 118/12/3
f 172/2/10 131/6/10 132/3/10
f 137/4/10 134/15/10 135/5/10
f 133/13/3 136/6/3 132/7/3
f 170/49/10 125/10/10 131/6/10
f 130/50/10 135/5/10 127/11/10
f 127/14/3 136/6/3 125/12/3
f 165/2/1 138/6/1 139/3/1
f 144/4/1 141/15/1 142/5/1
f 140/13/3 143/6/3 139/7/3
f 172/49/1 132/10/1 138/6/1
f 137/50/1 142/5/1 134/11/1
f 134/14/3 143/6/3 132/12/3
f 167/2/4 148/6/4 99/3/4
f 101/15/4 150/1/4 102/4/4
f 149/13/3 150/6/3 99/7/3
f 165/49/4 139/10/4 148/6/4
f 144/50/4 151/5/4 141/11/4
f 141/14/3 150/6/3 139/12/3
f 168/51/3 152/19/3 103/20/3
f 153/21/3 154/22/3 103/20/3
f 169/52/3 155/24/3 110/1/3
f 170/52/3 157/24/3 124/1/3
f 158/21/3 146/25/3 124/1/3
f 172/51/3 160/19/3 131/20/3
f 167/51/3 162/19/3 148/20/3
f 163/21/3 164/22/3 148/20/3
f 92/52/3 154/24/3 100/1/3
f 166/21/3 162/25/3 100/1/3
f 156/21/3 152/25/3 110/1/3
f 159/51/3 146/19/3 117/20/3
f 147/21/3 155/26/3 117/20/3
f 161/21/3 157/26/3 131/20/3
f 165/52/3 164/24/3 138/1/3
f 171/21/3 160/25/3 138/1/3
f 158/32/3 157/30/3 174/31/3
f 146/17/3 158/32/3 145/16/3
f 145/16/3 174/31/3 175/33/3
f 174/31/3 173/27/3 176/34/3
f 160/28/3 171/36/3 173/27/3
f 145/16/3 175/33/3 155/37/3
f 175/33/3 176/34/3 178/39/3
f 176/34/3 177/35/3 179/40/3
f 177/35/3 171/36/3 180/41/3
f 156/38/3 175/33/3 152/43/3
f 178/39/3 179/40/3 154/44/3
f 179/40/3 180/41/3 166/45/3
