# Blender 4.3.1
# www.blender.org
mtllib left_e_rod.mtl
o cube.001
v -1.375000 0.125000 2.125000
v -1.375000 0.125000 1.875000
v -1.375000 -0.125000 2.125000
v -1.375000 -0.125000 1.875000
v -1.437500 0.125000 1.875000
v -1.437500 0.125000 2.125000
v -1.437500 -0.125000 1.875000
v -1.437500 -0.125000 2.125000
v -1.375000 0.062500 1.875000
v -1.375000 0.062500 -0.062500
v -1.375000 -0.062500 1.875000
v -1.375000 -0.062500 -0.062500
v -1.437500 0.062500 -0.062500
v -1.437500 0.062500 1.875000
v -1.437500 -0.062500 -0.062500
v -1.437500 -0.062500 1.875000
vn -0.0000 -0.0000 -1.0000
vn 1.0000 -0.0000 -0.0000
vn -0.0000 -0.0000 1.0000
vn -1.0000 -0.0000 -0.0000
vn -0.0000 1.0000 -0.0000
vn -0.0000 -1.0000 -0.0000
vt 0.910714 0.000000
vt 0.901786 0.000000
vt 0.901786 0.035714
vt 0.910714 0.035714
vt 0.892857 0.000000
vt 0.857143 0.000000
vt 0.857143 0.035714
vt 0.892857 0.035714
vt 0.071429 0.660714
vt 0.062500 0.660714
vt 0.062500 0.678571
vt 0.071429 0.678571
vt 0.276786 0.767857
vt 0.000000 0.767857
vt 0.000000 0.785714
vt 0.276786 0.785714
vt 0.000000 0.776786
vt 0.276786 0.776786
s 1
usemtl m_647a5394-0028-91ee-b79f-c60b1a88fde7.001
f 4/1/1 7/2/1 5/3/1 2/4/1
f 3/5/2 4/6/2 2/7/2 1/8/2
f 8/1/3 3/2/3 1/3/3 6/4/3
f 7/5/4 8/6/4 6/7/4 5/8/4
f 6/1/5 1/2/5 2/3/5 5/4/5
f 7/1/6 4/2/6 3/3/6 8/4/6
f 12/9/1 15/10/1 13/11/1 10/12/1
f 11/13/2 12/14/2 10/15/2 9/16/2
f 16/9/3 11/10/3 9/11/3 14/12/3
f 15/13/4 16/14/4 14/15/4 13/16/4
f 14/15/5 9/17/5 10/18/5 13/16/5
f 15/18/6 12/13/6 11/14/6 16/17/6
