# Blender 4.3.2
# www.blender.org
mtllib right_e_rod.mtl
o cube.001
v 1.437500 0.062500 1.875000
v 1.437500 0.062500 -0.062500
v 1.437500 -0.062500 1.875000
v 1.437500 -0.062500 -0.062500
v 1.375000 0.062500 -0.062500
v 1.375000 0.062500 1.875000
v 1.375000 -0.062500 -0.062500
v 1.375000 -0.062500 1.875000
v 1.437500 0.125000 2.125000
v 1.437500 0.125000 1.875000
v 1.437500 -0.125000 2.125000
v 1.437500 -0.125000 1.875000
v 1.375000 0.125000 1.875000
v 1.375000 0.125000 2.125000
v 1.375000 -0.125000 1.875000
v 1.375000 -0.125000 2.125000
vn -0.0000 -0.0000 -1.0000
vn 1.0000 -0.0000 -0.0000
vn -0.0000 -0.0000 1.0000
vn -1.0000 -0.0000 -0.0000
vn -0.0000 1.0000 -0.0000
vn -0.0000 -1.0000 -0.0000
vt 0.250000 0.794643
vt 0.258929 0.794643
vt 0.258929 0.776786
vt 0.250000 0.776786
vt 0.276786 0.794643
vt 0.000000 0.794643
vt 0.000000 0.812500
vt 0.276786 0.812500
vt 0.062500 0.660714
vt 0.071429 0.660714
vt 0.071429 0.678571
vt 0.062500 0.678571
vt 0.276786 0.803571
vt 0.000000 0.803571
vt 0.901786 0.000000
vt 0.910714 0.000000
vt 0.910714 0.035714
vt 0.901786 0.035714
vt 0.857143 0.000000
vt 0.892857 0.000000
vt 0.892857 0.035714
vt 0.857143 0.035714
s 1
usemtl m_647a5394-0028-91ee-b79f-c60b1a88fde7.001
f 4/1/1 7/2/1 5/3/1 2/4/1
f 3/5/2 4/6/2 2/7/2 1/8/2
f 8/9/3 3/10/3 1/11/3 6/12/3
f 7/6/4 8/5/4 6/8/4 5/7/4
f 6/13/5 1/8/5 2/7/5 5/14/5
f 7/6/6 4/14/6 3/13/6 8/5/6
f 12/15/1 15/16/1 13/17/1 10/18/1
f 11/19/2 12/20/2 10/21/2 9/22/2
f 16/15/3 11/16/3 9/17/3 14/18/3
f 15/19/4 16/20/4 14/21/4 13/22/4
f 14/15/5 9/16/5 10/17/5 13/18/5
f 15/15/6 12/16/6 11/17/6 16/18/6
