# Blender 4.3.1
# www.blender.org
mtllib right_e_link.mtl
o cube.001
v 1.498438 0.312500 0.125000
v 1.498438 0.312500 -0.125000
v 1.498438 -0.375000 0.125000
v 1.498438 -0.375000 -0.125000
v 1.310938 0.312500 -0.125000
v 1.310938 0.312500 0.125000
v 1.310938 -0.375000 -0.125000
v 1.310938 -0.375000 0.125000
v 1.375000 -0.375000 0.062500
v 1.375000 -0.375000 -0.062500
v 1.375000 -0.750000 0.062500
v 1.375000 -0.750000 -0.062500
v 1.312500 -0.375000 -0.062500
v 1.312500 -0.375000 0.062500
v 1.312500 -0.750000 -0.062500
v 1.312500 -0.750000 0.062500
vn -0.0000 -0.0000 -1.0000
vn 1.0000 -0.0000 -0.0000
vn -0.0000 -0.0000 1.0000
vn -1.0000 -0.0000 -0.0000
vn -0.0000 1.0000 -0.0000
vn -0.0000 -1.0000 -0.0000
vt 0.343750 0.656250
vt 0.250000 0.656250
vt 0.250000 1.000000
vt 0.343750 1.000000
vt 0.343750 0.531250
vt 0.468750 0.531250
vt 0.468750 0.875000
vt 0.343750 0.875000
vt 0.125000 0.656250
vt 0.000000 0.656250
vt 0.000000 1.000000
vt 0.125000 1.000000
vt 0.437500 1.000000
vt 0.437500 0.875000
vt 0.093750 0.531250
vt 0.187500 0.531250
vt 0.187500 0.656250
vt 0.093750 0.656250
vt 0.250000 0.468750
vt 0.218750 0.468750
vt 0.218750 0.656250
vt 0.187500 0.468750
vt 0.031250 0.812500
vt 0.000000 0.812500
vt 0.031250 1.000000
vt 0.031250 0.937500
vt 0.000000 0.937500
vt 0.218750 0.531250
vt 0.250000 0.531250
s 1
usemtl m_4ab3f651-4f22-0271-1410-0aebf5fe8517.002
f 4/1/1 7/2/1 5/3/1 2/4/1
f 3/5/2 4/6/2 2/7/2 1/8/2
f 8/1/3 3/2/3 1/3/3 6/4/3
f 7/9/4 8/10/4 6/11/4 5/12/4
f 6/4/5 1/13/5 2/14/5 5/8/5
f 7/15/6 4/16/6 3/17/6 8/18/6
f 12/19/1 15/20/1 13/21/1 10/2/1
f 11/19/2 12/22/2 10/17/2 9/2/2
f 16/23/3 11/24/3 9/11/3 14/25/3
f 15/19/4 16/22/4 14/17/4 13/2/4
f 14/26/5 9/27/5 10/11/5 13/25/5
f 15/19/6 12/20/6 11/28/6 16/29/6
